<?xml version="1.0" encoding="UTF-8" standalone="no"?>
<svg xmlns="http://www.w3.org/2000/svg"
     contentScriptType="application/ecmascript" contentStyleType="text/css" height="735px" preserveAspectRatio="none"
     style="width:748px;height:735px;" version="1.1" viewBox="0 0 748 735" width="748px" zoomAndPan="magnify">
    <defs>
        <filter height="300%" id="f1w4j5v6rpn1ii" width="300%" x="-1" y="-1">
            <feGaussianBlur result="blurOut" stdDeviation="2.0"/>
            <feColorMatrix in="blurOut" result="blurOut2" type="matrix"
                           values="0 0 0 0 0 0 0 0 0 0 0 0 0 0 0 0 0 0 .4 0"/>
            <feOffset dx="4.0" dy="4.0" in="blurOut2" result="blurOut3"/>
            <feBlend in="SourceGraphic" in2="blurOut3" mode="normal"/>
        </filter>
    </defs>
    <g><!--class Operation-->
        <rect fill="#FEFECE" filter="url(#f1w4j5v6rpn1ii)" height="99.2188" id="Operation"
              style="stroke: #A80036; stroke-width: 1.5;" width="254" x="415.5" y="8"/>
        <ellipse cx="507.25" cy="24" fill="#ADD1B2" rx="11" ry="11" style="stroke: #A80036; stroke-width: 1.0;"/>
        <path d="M509.5938,19.6719 L509.7656,19.75 C509.9844,19.4375 510.1875,19.3438 510.4844,19.3438 C510.7813,19.3438 511.0625,19.4844 511.2188,19.75 C511.3125,19.9063 511.3281,20.0313 511.3281,20.4688 L511.3281,21.8906 C511.3281,22.3125 511.2969,22.5 511.1875,22.6563 C511.0156,22.875 510.75,23.0156 510.4844,23.0156 C510.2656,23.0156 510.0313,22.9063 509.8906,22.7656 C509.75,22.6406 509.7188,22.5156 509.6563,22.1094 C509.5625,21.7031 509.3906,21.4844 508.9063,21.2031 C508.4375,20.9531 507.8281,20.7969 507.25,20.7969 C505.5156,20.7969 504.2656,22.1094 504.2656,23.8906 L504.2656,24.9844 C504.2656,26.6875 505.5625,27.7813 507.6094,27.7813 C508.375,27.7813 509.0625,27.6563 509.4844,27.3906 C509.6719,27.2969 509.6719,27.2969 510.125,26.8125 C510.3125,26.625 510.5156,26.5469 510.7344,26.5469 C511.2031,26.5469 511.5938,26.9375 511.5938,27.3906 C511.5938,27.7813 511.2656,28.2344 510.6875,28.6406 C509.9375,29.1875 508.7813,29.4844 507.5625,29.4844 C504.6719,29.4844 502.5625,27.5938 502.5625,25.0156 L502.5625,23.8906 C502.5625,21.1719 504.5625,19.0938 507.1875,19.0938 C508.0625,19.0938 508.6563,19.2344 509.5938,19.6719 Z "/>
        <text fill="#000000" font-family="sans-serif" font-size="12" lengthAdjust="spacingAndGlyphs" textLength="62"
              x="527.75" y="28.1543">Operation
        </text>
        <line style="stroke: #A80036; stroke-width: 1.5;" x1="416.5" x2="668.5" y1="40" y2="40"/>
        <text fill="#000000" font-family="sans-serif" font-size="11" lengthAdjust="spacingAndGlyphs" textLength="145"
              x="421.5" y="54.2104">private String operation_;
        </text>
        <line style="stroke: #A80036; stroke-width: 1.5;" x1="416.5" x2="668.5" y1="60.8047" y2="60.8047"/>
        <text fill="#000000" font-family="sans-serif" font-size="11" lengthAdjust="spacingAndGlyphs" textLength="105"
              x="421.5" y="75.0151">public Operation();
        </text>
        <text fill="#000000" font-family="sans-serif" font-size="11" lengthAdjust="spacingAndGlyphs" textLength="161"
              x="421.5" y="87.8198">public String getOperation();
        </text>
        <text fill="#000000" font-family="sans-serif" font-size="11" lengthAdjust="spacingAndGlyphs" textLength="242"
              x="421.5" y="100.6245">public void setOperation(String operation);
        </text><!--class MathematicalOperation-->
        <rect fill="#FEFECE" filter="url(#f1w4j5v6rpn1ii)" height="99.2188" id="MathematicalOperation"
              style="stroke: #A80036; stroke-width: 1.5;" width="390" x="347.5" y="184"/>
        <ellipse cx="465.25" cy="200" fill="#ADD1B2" rx="11" ry="11" style="stroke: #A80036; stroke-width: 1.0;"/>
        <path d="M467.5938,195.6719 L467.7656,195.75 C467.9844,195.4375 468.1875,195.3438 468.4844,195.3438 C468.7813,195.3438 469.0625,195.4844 469.2188,195.75 C469.3125,195.9063 469.3281,196.0313 469.3281,196.4688 L469.3281,197.8906 C469.3281,198.3125 469.2969,198.5 469.1875,198.6563 C469.0156,198.875 468.75,199.0156 468.4844,199.0156 C468.2656,199.0156 468.0313,198.9063 467.8906,198.7656 C467.75,198.6406 467.7188,198.5156 467.6563,198.1094 C467.5625,197.7031 467.3906,197.4844 466.9063,197.2031 C466.4375,196.9531 465.8281,196.7969 465.25,196.7969 C463.5156,196.7969 462.2656,198.1094 462.2656,199.8906 L462.2656,200.9844 C462.2656,202.6875 463.5625,203.7813 465.6094,203.7813 C466.375,203.7813 467.0625,203.6563 467.4844,203.3906 C467.6719,203.2969 467.6719,203.2969 468.125,202.8125 C468.3125,202.625 468.5156,202.5469 468.7344,202.5469 C469.2031,202.5469 469.5938,202.9375 469.5938,203.3906 C469.5938,203.7813 469.2656,204.2344 468.6875,204.6406 C467.9375,205.1875 466.7813,205.4844 465.5625,205.4844 C462.6719,205.4844 460.5625,203.5938 460.5625,201.0156 L460.5625,199.8906 C460.5625,197.1719 462.5625,195.0938 465.1875,195.0938 C466.0625,195.0938 466.6563,195.2344 467.5938,195.6719 Z "/>
        <text fill="#000000" font-family="sans-serif" font-size="12" lengthAdjust="spacingAndGlyphs" textLength="146"
              x="485.75" y="204.1543">MathematicalOperation
        </text>
        <line style="stroke: #A80036; stroke-width: 1.5;" x1="348.5" x2="736.5" y1="216" y2="216"/>
        <text fill="#000000" font-family="sans-serif" font-size="11" lengthAdjust="spacingAndGlyphs" textLength="128"
              x="353.5" y="230.2104">private double result_;
        </text>
        <line style="stroke: #A80036; stroke-width: 1.5;" x1="348.5" x2="736.5" y1="236.8047" y2="236.8047"/>
        <text fill="#000000" font-family="sans-serif" font-size="11" lengthAdjust="spacingAndGlyphs" textLength="180"
              x="353.5" y="251.0151">public MathematicalOperation();
        </text>
        <text fill="#000000" font-family="sans-serif" font-size="11" lengthAdjust="spacingAndGlyphs" textLength="378"
              x="353.5" y="263.8198">public void solve(String uneOperation) throws OperationException;
        </text>
        <text fill="#000000" font-family="sans-serif" font-size="11" lengthAdjust="spacingAndGlyphs" textLength="132"
              x="353.5" y="276.6245">public String toString();
        </text><!--class Calculator-->
        <rect fill="#FEFECE" filter="url(#f1w4j5v6rpn1ii)" height="99.2188" id="Calculator"
              style="stroke: #A80036; stroke-width: 1.5;" width="210" x="437.5" y="360"/>
        <ellipse cx="506.75" cy="376" fill="#ADD1B2" rx="11" ry="11" style="stroke: #A80036; stroke-width: 1.0;"/>
        <path d="M509.0938,371.6719 L509.2656,371.75 C509.4844,371.4375 509.6875,371.3438 509.9844,371.3438 C510.2813,371.3438 510.5625,371.4844 510.7188,371.75 C510.8125,371.9063 510.8281,372.0313 510.8281,372.4688 L510.8281,373.8906 C510.8281,374.3125 510.7969,374.5 510.6875,374.6563 C510.5156,374.875 510.25,375.0156 509.9844,375.0156 C509.7656,375.0156 509.5313,374.9063 509.3906,374.7656 C509.25,374.6406 509.2188,374.5156 509.1563,374.1094 C509.0625,373.7031 508.8906,373.4844 508.4063,373.2031 C507.9375,372.9531 507.3281,372.7969 506.75,372.7969 C505.0156,372.7969 503.7656,374.1094 503.7656,375.8906 L503.7656,376.9844 C503.7656,378.6875 505.0625,379.7813 507.1094,379.7813 C507.875,379.7813 508.5625,379.6563 508.9844,379.3906 C509.1719,379.2969 509.1719,379.2969 509.625,378.8125 C509.8125,378.625 510.0156,378.5469 510.2344,378.5469 C510.7031,378.5469 511.0938,378.9375 511.0938,379.3906 C511.0938,379.7813 510.7656,380.2344 510.1875,380.6406 C509.4375,381.1875 508.2813,381.4844 507.0625,381.4844 C504.1719,381.4844 502.0625,379.5938 502.0625,377.0156 L502.0625,375.8906 C502.0625,373.1719 504.0625,371.0938 506.6875,371.0938 C507.5625,371.0938 508.1563,371.2344 509.0938,371.6719 Z "/>
        <text fill="#000000" font-family="sans-serif" font-size="12" lengthAdjust="spacingAndGlyphs" textLength="63"
              x="527.25" y="380.1543">Calculator
        </text>
        <line style="stroke: #A80036; stroke-width: 1.5;" x1="438.5" x2="646.5" y1="392" y2="392"/>
        <text fill="#000000" font-family="sans-serif" font-size="11" lengthAdjust="spacingAndGlyphs" textLength="101"
              x="443.5" y="406.2104">private int index_;
        </text>
        <line style="stroke: #A80036; stroke-width: 1.5;" x1="438.5" x2="646.5" y1="412.8047" y2="412.8047"/>
        <text fill="#000000" font-family="sans-serif" font-size="11" lengthAdjust="spacingAndGlyphs" textLength="106"
              x="443.5" y="427.0151">public Calculator();
        </text>
        <text fill="#000000" font-family="sans-serif" font-size="11" lengthAdjust="spacingAndGlyphs" textLength="198"
              x="443.5" y="439.8198">public void solve(String operation);
        </text>
        <text fill="#000000" font-family="sans-serif" font-size="11" lengthAdjust="spacingAndGlyphs" textLength="132"
              x="443.5" y="452.6245">public String toString();
        </text><!--class WindowListener-->
        <rect fill="#FEFECE" filter="url(#f1w4j5v6rpn1ii)" height="48" id="WindowListener"
              style="stroke: #A80036; stroke-width: 1.5;" width="131" x="6" y="385.5"/>
        <ellipse cx="21" cy="401.5" fill="#B4A7E5" rx="11" ry="11" style="stroke: #A80036; stroke-width: 1.0;"/>
        <path d="M21.9531,398.2813 L21.9531,404.7969 L23.6719,404.7969 C24.125,404.7969 24.2656,404.8281 24.4375,404.9531 C24.6719,405.125 24.7813,405.375 24.7813,405.6563 C24.7813,406.2188 24.4219,406.5 23.6719,406.5 L18.5313,406.5 C18.125,406.5 17.9219,406.4531 17.7656,406.3281 C17.5469,406.1719 17.4063,405.9063 17.4063,405.6563 C17.4063,405.3594 17.5625,405.0781 17.8125,404.9219 C17.9688,404.8125 18.0938,404.7969 18.5313,404.7969 L20.25,404.7969 L20.25,398.2813 L18.5313,398.2813 C18.1094,398.2813 17.9219,398.25 17.7656,398.1406 C17.5469,397.9688 17.4063,397.7188 17.4063,397.4375 C17.4063,397.1563 17.5625,396.8594 17.8125,396.7031 C17.9688,396.6094 18.0938,396.5938 18.5313,396.5938 L23.6719,396.5938 C24.125,396.5938 24.2656,396.625 24.4375,396.7344 C24.6719,396.9063 24.7813,397.1719 24.7813,397.4375 C24.7813,397.7344 24.6406,398.0156 24.375,398.1719 C24.25,398.25 24.0625,398.2813 23.6719,398.2813 Z "/>
        <text fill="#000000" font-family="sans-serif" font-size="12" font-style="italic" lengthAdjust="spacingAndGlyphs"
              textLength="99" x="35" y="405.6543">WindowListener
        </text>
        <line style="stroke: #A80036; stroke-width: 1.5;" x1="7" x2="136" y1="417.5" y2="417.5"/>
        <line style="stroke: #A80036; stroke-width: 1.5;" x1="7" x2="136" y1="425.5"
              y2="425.5"/><!--class ActionListener-->
        <rect fill="#FEFECE" filter="url(#f1w4j5v6rpn1ii)" height="48" id="ActionListener"
              style="stroke: #A80036; stroke-width: 1.5;" width="121" x="172" y="385.5"/>
        <ellipse cx="187" cy="401.5" fill="#B4A7E5" rx="11" ry="11" style="stroke: #A80036; stroke-width: 1.0;"/>
        <path d="M187.9531,398.2813 L187.9531,404.7969 L189.6719,404.7969 C190.125,404.7969 190.2656,404.8281 190.4375,404.9531 C190.6719,405.125 190.7813,405.375 190.7813,405.6563 C190.7813,406.2188 190.4219,406.5 189.6719,406.5 L184.5313,406.5 C184.125,406.5 183.9219,406.4531 183.7656,406.3281 C183.5469,406.1719 183.4063,405.9063 183.4063,405.6563 C183.4063,405.3594 183.5625,405.0781 183.8125,404.9219 C183.9688,404.8125 184.0938,404.7969 184.5313,404.7969 L186.25,404.7969 L186.25,398.2813 L184.5313,398.2813 C184.1094,398.2813 183.9219,398.25 183.7656,398.1406 C183.5469,397.9688 183.4063,397.7188 183.4063,397.4375 C183.4063,397.1563 183.5625,396.8594 183.8125,396.7031 C183.9688,396.6094 184.0938,396.5938 184.5313,396.5938 L189.6719,396.5938 C190.125,396.5938 190.2656,396.625 190.4375,396.7344 C190.6719,396.9063 190.7813,397.1719 190.7813,397.4375 C190.7813,397.7344 190.6406,398.0156 190.375,398.1719 C190.25,398.25 190.0625,398.2813 189.6719,398.2813 Z "/>
        <text fill="#000000" font-family="sans-serif" font-size="12" font-style="italic" lengthAdjust="spacingAndGlyphs"
              textLength="89" x="201" y="405.6543">ActionListener
        </text>
        <line style="stroke: #A80036; stroke-width: 1.5;" x1="173" x2="292" y1="417.5" y2="417.5"/>
        <line style="stroke: #A80036; stroke-width: 1.5;" x1="173" x2="292" y1="425.5" y2="425.5"/><!--class JFrame-->
        <rect fill="#FEFECE" filter="url(#f1w4j5v6rpn1ii)" height="48" id="JFrame"
              style="stroke: #A80036; stroke-width: 1.5;" width="74" x="328.5" y="385.5"/>
        <ellipse cx="343.5" cy="401.5" fill="#ADD1B2" rx="11" ry="11" style="stroke: #A80036; stroke-width: 1.0;"/>
        <path d="M345.8438,397.1719 L346.0156,397.25 C346.2344,396.9375 346.4375,396.8438 346.7344,396.8438 C347.0313,396.8438 347.3125,396.9844 347.4688,397.25 C347.5625,397.4063 347.5781,397.5313 347.5781,397.9688 L347.5781,399.3906 C347.5781,399.8125 347.5469,400 347.4375,400.1563 C347.2656,400.375 347,400.5156 346.7344,400.5156 C346.5156,400.5156 346.2813,400.4063 346.1406,400.2656 C346,400.1406 345.9688,400.0156 345.9063,399.6094 C345.8125,399.2031 345.6406,398.9844 345.1563,398.7031 C344.6875,398.4531 344.0781,398.2969 343.5,398.2969 C341.7656,398.2969 340.5156,399.6094 340.5156,401.3906 L340.5156,402.4844 C340.5156,404.1875 341.8125,405.2813 343.8594,405.2813 C344.625,405.2813 345.3125,405.1563 345.7344,404.8906 C345.9219,404.7969 345.9219,404.7969 346.375,404.3125 C346.5625,404.125 346.7656,404.0469 346.9844,404.0469 C347.4531,404.0469 347.8438,404.4375 347.8438,404.8906 C347.8438,405.2813 347.5156,405.7344 346.9375,406.1406 C346.1875,406.6875 345.0313,406.9844 343.8125,406.9844 C340.9219,406.9844 338.8125,405.0938 338.8125,402.5156 L338.8125,401.3906 C338.8125,398.6719 340.8125,396.5938 343.4375,396.5938 C344.3125,396.5938 344.9063,396.7344 345.8438,397.1719 Z "/>
        <text fill="#000000" font-family="sans-serif" font-size="12" lengthAdjust="spacingAndGlyphs" textLength="42"
              x="357.5" y="405.6543">JFrame
        </text>
        <line style="stroke: #A80036; stroke-width: 1.5;" x1="329.5" x2="401.5" y1="417.5" y2="417.5"/>
        <line style="stroke: #A80036; stroke-width: 1.5;" x1="329.5" x2="401.5" y1="425.5"
              y2="425.5"/><!--class SwingUI-->
        <rect fill="#FEFECE" filter="url(#f1w4j5v6rpn1ii)" height="188.8516" id="SwingUI"
              style="stroke: #A80036; stroke-width: 1.5;" width="290" x="153.5" y="536"/>
        <ellipse cx="270.25" cy="552" fill="#ADD1B2" rx="11" ry="11" style="stroke: #A80036; stroke-width: 1.0;"/>
        <path d="M272.5938,547.6719 L272.7656,547.75 C272.9844,547.4375 273.1875,547.3438 273.4844,547.3438 C273.7813,547.3438 274.0625,547.4844 274.2188,547.75 C274.3125,547.9063 274.3281,548.0313 274.3281,548.4688 L274.3281,549.8906 C274.3281,550.3125 274.2969,550.5 274.1875,550.6563 C274.0156,550.875 273.75,551.0156 273.4844,551.0156 C273.2656,551.0156 273.0313,550.9063 272.8906,550.7656 C272.75,550.6406 272.7188,550.5156 272.6563,550.1094 C272.5625,549.7031 272.3906,549.4844 271.9063,549.2031 C271.4375,548.9531 270.8281,548.7969 270.25,548.7969 C268.5156,548.7969 267.2656,550.1094 267.2656,551.8906 L267.2656,552.9844 C267.2656,554.6875 268.5625,555.7813 270.6094,555.7813 C271.375,555.7813 272.0625,555.6563 272.4844,555.3906 C272.6719,555.2969 272.6719,555.2969 273.125,554.8125 C273.3125,554.625 273.5156,554.5469 273.7344,554.5469 C274.2031,554.5469 274.5938,554.9375 274.5938,555.3906 C274.5938,555.7813 274.2656,556.2344 273.6875,556.6406 C272.9375,557.1875 271.7813,557.4844 270.5625,557.4844 C267.6719,557.4844 265.5625,555.5938 265.5625,553.0156 L265.5625,551.8906 C265.5625,549.1719 267.5625,547.0938 270.1875,547.0938 C271.0625,547.0938 271.6563,547.2344 272.5938,547.6719 Z "/>
        <text fill="#000000" font-family="sans-serif" font-size="12" lengthAdjust="spacingAndGlyphs" textLength="48"
              x="290.75" y="556.1543">SwingUI
        </text>
        <line style="stroke: #A80036; stroke-width: 1.5;" x1="154.5" x2="442.5" y1="568" y2="568"/>
        <text fill="#000000" font-family="sans-serif" font-size="11" lengthAdjust="spacingAndGlyphs" textLength="174"
              x="159.5" y="582.2104">private JTextField tfOperation_;
        </text>
        <text fill="#000000" font-family="sans-serif" font-size="11" lengthAdjust="spacingAndGlyphs" textLength="156"
              x="159.5" y="595.0151">private JTextArea taResult_;
        </text>
        <line style="stroke: #A80036; stroke-width: 1.5;" x1="154.5" x2="442.5" y1="601.6094" y2="601.6094"/>
        <text fill="#000000" font-family="sans-serif" font-size="11" lengthAdjust="spacingAndGlyphs" textLength="94"
              x="159.5" y="615.8198">public SwingUI();
        </text>
        <text fill="#000000" font-family="sans-serif" font-size="11" lengthAdjust="spacingAndGlyphs" textLength="263"
              x="159.5" y="628.6245">public void windowActivated(WindowEvent evt);
        </text>
        <text fill="#000000" font-family="sans-serif" font-size="11" lengthAdjust="spacingAndGlyphs" textLength="278"
              x="159.5" y="641.4292">public void windowDeactivated(WindowEvent evt);
        </text>
        <text fill="#000000" font-family="sans-serif" font-size="11" lengthAdjust="spacingAndGlyphs" textLength="251"
              x="159.5" y="654.2339">public void windowClosed(WindowEvent evt);
        </text>
        <text fill="#000000" font-family="sans-serif" font-size="11" lengthAdjust="spacingAndGlyphs" textLength="254"
              x="159.5" y="667.0386">public void windowClosing(WindowEvent evt);
        </text>
        <text fill="#000000" font-family="sans-serif" font-size="11" lengthAdjust="spacingAndGlyphs" textLength="259"
              x="159.5" y="679.8433">public void windowIconified(WindowEvent evt);
        </text>
        <text fill="#000000" font-family="sans-serif" font-size="11" lengthAdjust="spacingAndGlyphs" textLength="274"
              x="159.5" y="692.6479">public void windowDeiconified(WindowEvent evt);
        </text>
        <text fill="#000000" font-family="sans-serif" font-size="11" lengthAdjust="spacingAndGlyphs" textLength="256"
              x="159.5" y="705.4526">public void windowOpened(WindowEvent evt);
        </text>
        <text fill="#000000" font-family="sans-serif" font-size="11" lengthAdjust="spacingAndGlyphs" textLength="256"
              x="159.5" y="718.2573">public void actionPerformed(ActionEvent evt);
        </text><!--link Operation to MathematicalOperation-->
        <path d="M542.5,127.63 C542.5,146.479 542.5,166.496 542.5,183.936 " fill="none"
              id="Operation-MathematicalOperation" style="stroke: #A80036; stroke-width: 1.0;"/>
        <polygon fill="none" points="535.5,127.432,542.5,107.432,549.5,127.432,535.5,127.432"
                 style="stroke: #A80036; stroke-width: 1.0;"/>
        <text fill="#000000" font-family="sans-serif" font-size="13" lengthAdjust="spacingAndGlyphs" textLength="71"
              x="543.5" y="150.0669">Inheritance
        </text><!--link MathematicalOperation to Calculator-->
        <path d="M542.5,283.432 C542.5,303.056 542.5,325.9 542.5,346.654 " fill="none"
              id="MathematicalOperation-Calculator" style="stroke: #A80036; stroke-width: 1.0;"/>
        <polygon fill="#A80036" points="542.5,359.936,546.5,353.936,542.5,347.936,538.5,353.936,542.5,359.936"
                 style="stroke: #A80036; stroke-width: 1.0;"/>
        <text fill="#000000" font-family="sans-serif" font-size="13" lengthAdjust="spacingAndGlyphs" textLength="75"
              x="543.5" y="326.0669">operations_
        </text>
        <text fill="#000000" font-family="sans-serif" font-size="13" lengthAdjust="spacingAndGlyphs" textLength="7"
              x="535.0297" y="303.2105">*
        </text>
        <text fill="#000000" font-family="sans-serif" font-size="13" lengthAdjust="spacingAndGlyphs" textLength="8"
              x="533.9375" y="348.9722">1
        </text><!--link Calculator to SwingUI-->
        <path d="M488.348,459.103 C465.966,479.193 439.116,503.292 412.75,526.956 " fill="none" id="Calculator-SwingUI"
              style="stroke: #A80036; stroke-width: 1.0;"/>
        <polygon fill="#A80036"
                 points="403.067,535.646,410.204,534.6152,411.9975,527.6307,404.8605,528.6615,403.067,535.646"
                 style="stroke: #A80036; stroke-width: 1.0;"/>
        <text fill="#000000" font-family="sans-serif" font-size="13" lengthAdjust="spacingAndGlyphs" textLength="69"
              x="450.5" y="502.0669">calculator_
        </text>
        <text fill="#000000" font-family="sans-serif" font-size="13" lengthAdjust="spacingAndGlyphs" textLength="8"
              x="472.1704" y="479.194">1
        </text>
        <text fill="#000000" font-family="sans-serif" font-size="13" lengthAdjust="spacingAndGlyphs" textLength="8"
              x="402.7667" y="524.8872">1
        </text><!--link JFrame to SwingUI-->
        <path d="M352.588,452.706 C345.352,476.356 336.025,506.845 327.159,535.823 " fill="none" id="JFrame-SwingUI"
              style="stroke: #A80036; stroke-width: 1.0;"/>
        <polygon fill="none" points="345.912,450.6,358.456,433.523,359.299,454.696,345.912,450.6"
                 style="stroke: #A80036; stroke-width: 1.0;"/>
        <text fill="#000000" font-family="sans-serif" font-size="13" lengthAdjust="spacingAndGlyphs" textLength="71"
              x="341.5" y="502.0669">Inheritance
        </text><!--link WindowListener to SwingUI-->
        <path d="M107.715,448.068 C125.021,465.821 146.14,487.195 165.5,506 C175.558,515.77 186.138,525.875 196.755,535.903 "
              fill="none" id="WindowListener-SwingUI" style="stroke: #A80036; stroke-width: 1.0;"/>
        <polygon fill="none" points="102.5347,452.782,93.6272,433.555,112.58,443.03,102.5347,452.782"
                 style="stroke: #A80036; stroke-width: 1.0;"/>
        <text fill="#000000" font-family="sans-serif" font-size="13" lengthAdjust="spacingAndGlyphs" textLength="71"
              x="166.5" y="502.0669">Inheritance
        </text><!--link ActionListener to SwingUI-->
        <path d="M238.275,453.563 C240.987,470.125 244.698,489.105 249.5,506 C252.275,515.763 255.544,525.818 259.054,535.776 "
              fill="none" id="ActionListener-SwingUI" style="stroke: #A80036; stroke-width: 1.0;"/>
        <polygon fill="none" points="231.319,454.38,235.278,433.563,245.165,452.305,231.319,454.38"
                 style="stroke: #A80036; stroke-width: 1.0;"/>
        <text fill="#000000" font-family="sans-serif" font-size="13" lengthAdjust="spacingAndGlyphs" textLength="71"
              x="250.5" y="502.0669">Inheritance
        </text><!--
@startuml
class Operation {
    private String operation_;

    public Operation(); 
    public String getOperation();
    public void setOperation(String operation);
}

class MathematicalOperation {
    private double result_;

    public MathematicalOperation();
    public void solve(String uneOperation) throws OperationException;
    public String toString();
} 

class Calculator {
    private int index_;

    public Calculator();
    public void solve(String operation);
    public String toString();
} 

interface WindowListener {
}

interface ActionListener{
}

class JFrame {
}

class SwingUI {
    private JTextField tfOperation_;
    private JTextArea taResult_;

    public SwingUI();
    public void windowActivated(WindowEvent evt);
    public void windowDeactivated(WindowEvent evt);
    public void windowClosed(WindowEvent evt);
    public void windowClosing(WindowEvent evt);
    public void windowIconified(WindowEvent evt);
    public void windowDeiconified(WindowEvent evt);
    public void windowOpened(WindowEvent evt);
    public void actionPerformed(ActionEvent evt);
} 

Operation <|-down- MathematicalOperation: Inheritance
Calculator "1" *-up- "*" MathematicalOperation: operations_
SwingUI "1" *-up- "1" Calculator: calculator_
JFrame <|-down- SwingUI: Inheritance
WindowListener <|-down- SwingUI: Inheritance
ActionListener <|-down- SwingUI: Inheritance
@enduml

PlantUML version 1.2019.03(Sun Mar 10 11:04:44 UTC 2019)
(GPL source distribution)
Java Runtime: Java(TM) SE Runtime Environment
JVM: Java HotSpot(TM) 64-Bit Server VM
Java Version: 1.7.0_25-b15
Operating System: Linux
Default Encoding: UTF-8
Language: en
Country: US
-->
    </g>
</svg>