<?xml version="1.0" encoding="UTF-8" standalone="no"?>
<svg xmlns="http://www.w3.org/2000/svg"
     contentScriptType="application/ecmascript" contentStyleType="text/css" height="557px" preserveAspectRatio="none"
     style="width:1214px;height:557px;" version="1.1" viewBox="0 0 1214 557" width="1214px" zoomAndPan="magnify">
    <defs>
        <filter height="300%" id="f7m6cvqp1yc2b" width="300%" x="-1" y="-1">
            <feGaussianBlur result="blurOut" stdDeviation="2.0"/>
            <feColorMatrix in="blurOut" result="blurOut2" type="matrix"
                           values="0 0 0 0 0 0 0 0 0 0 0 0 0 0 0 0 0 0 .4 0"/>
            <feOffset dx="4.0" dy="4.0" in="blurOut2" result="blurOut3"/>
            <feBlend in="SourceGraphic" in2="blurOut3" mode="normal"/>
        </filter>
    </defs>
    <g><!--class Calculator-->
        <rect fill="#FEFECE" filter="url(#f7m6cvqp1yc2b)" height="99.2188" id="Calculator"
              style="stroke: #A80036; stroke-width: 1.5;" width="210" x="993" y="277.5"/>
        <ellipse cx="1062.25" cy="293.5" fill="#ADD1B2" rx="11" ry="11" style="stroke: #A80036; stroke-width: 1.0;"/>
        <path d="M1064.5938,289.1719 L1064.7656,289.25 C1064.9844,288.9375 1065.1875,288.8438 1065.4844,288.8438 C1065.7813,288.8438 1066.0625,288.9844 1066.2188,289.25 C1066.3125,289.4063 1066.3281,289.5313 1066.3281,289.9688 L1066.3281,291.3906 C1066.3281,291.8125 1066.2969,292 1066.1875,292.1563 C1066.0156,292.375 1065.75,292.5156 1065.4844,292.5156 C1065.2656,292.5156 1065.0313,292.4063 1064.8906,292.2656 C1064.75,292.1406 1064.7188,292.0156 1064.6563,291.6094 C1064.5625,291.2031 1064.3906,290.9844 1063.9063,290.7031 C1063.4375,290.4531 1062.8281,290.2969 1062.25,290.2969 C1060.5156,290.2969 1059.2656,291.6094 1059.2656,293.3906 L1059.2656,294.4844 C1059.2656,296.1875 1060.5625,297.2813 1062.6094,297.2813 C1063.375,297.2813 1064.0625,297.1563 1064.4844,296.8906 C1064.6719,296.7969 1064.6719,296.7969 1065.125,296.3125 C1065.3125,296.125 1065.5156,296.0469 1065.7344,296.0469 C1066.2031,296.0469 1066.5938,296.4375 1066.5938,296.8906 C1066.5938,297.2813 1066.2656,297.7344 1065.6875,298.1406 C1064.9375,298.6875 1063.7813,298.9844 1062.5625,298.9844 C1059.6719,298.9844 1057.5625,297.0938 1057.5625,294.5156 L1057.5625,293.3906 C1057.5625,290.6719 1059.5625,288.5938 1062.1875,288.5938 C1063.0625,288.5938 1063.6563,288.7344 1064.5938,289.1719 Z "/>
        <text fill="#000000" font-family="sans-serif" font-size="12" lengthAdjust="spacingAndGlyphs" textLength="63"
              x="1082.75" y="297.6543">Calculator
        </text>
        <line style="stroke: #A80036; stroke-width: 1.5;" x1="994" x2="1202" y1="309.5" y2="309.5"/>
        <text fill="#000000" font-family="sans-serif" font-size="11" lengthAdjust="spacingAndGlyphs" textLength="106"
              x="999" y="323.7104">private int index_r;
        </text>
        <line style="stroke: #A80036; stroke-width: 1.5;" x1="994" x2="1202" y1="330.3047" y2="330.3047"/>
        <text fill="#000000" font-family="sans-serif" font-size="11" lengthAdjust="spacingAndGlyphs" textLength="106"
              x="999" y="344.5151">public Calculator();
        </text>
        <text fill="#000000" font-family="sans-serif" font-size="11" lengthAdjust="spacingAndGlyphs" textLength="198"
              x="999" y="357.3198">public void solve(String operation);
        </text>
        <text fill="#000000" font-family="sans-serif" font-size="11" lengthAdjust="spacingAndGlyphs" textLength="132"
              x="999" y="370.1245">public String toString();
        </text><!--class BackupCalculator-->
        <rect fill="#FEFECE" filter="url(#f7m6cvqp1yc2b)" height="73.6094" id="BackupCalculator"
              style="stroke: #A80036; stroke-width: 1.5;" width="247" x="442.5" y="473"/>
        <ellipse cx="507.25" cy="489" fill="#ADD1B2" rx="11" ry="11" style="stroke: #A80036; stroke-width: 1.0;"/>
        <path d="M509.5938,484.6719 L509.7656,484.75 C509.9844,484.4375 510.1875,484.3438 510.4844,484.3438 C510.7813,484.3438 511.0625,484.4844 511.2188,484.75 C511.3125,484.9063 511.3281,485.0313 511.3281,485.4688 L511.3281,486.8906 C511.3281,487.3125 511.2969,487.5 511.1875,487.6563 C511.0156,487.875 510.75,488.0156 510.4844,488.0156 C510.2656,488.0156 510.0313,487.9063 509.8906,487.7656 C509.75,487.6406 509.7188,487.5156 509.6563,487.1094 C509.5625,486.7031 509.3906,486.4844 508.9063,486.2031 C508.4375,485.9531 507.8281,485.7969 507.25,485.7969 C505.5156,485.7969 504.2656,487.1094 504.2656,488.8906 L504.2656,489.9844 C504.2656,491.6875 505.5625,492.7813 507.6094,492.7813 C508.375,492.7813 509.0625,492.6563 509.4844,492.3906 C509.6719,492.2969 509.6719,492.2969 510.125,491.8125 C510.3125,491.625 510.5156,491.5469 510.7344,491.5469 C511.2031,491.5469 511.5938,491.9375 511.5938,492.3906 C511.5938,492.7813 511.2656,493.2344 510.6875,493.6406 C509.9375,494.1875 508.7813,494.4844 507.5625,494.4844 C504.6719,494.4844 502.5625,492.5938 502.5625,490.0156 L502.5625,488.8906 C502.5625,486.1719 504.5625,484.0938 507.1875,484.0938 C508.0625,484.0938 508.6563,484.2344 509.5938,484.6719 Z "/>
        <text fill="#000000" font-family="sans-serif" font-size="12" lengthAdjust="spacingAndGlyphs" textLength="109"
              x="527.75" y="493.1543">BackupCalculator
        </text>
        <line style="stroke: #A80036; stroke-width: 1.5;" x1="443.5" x2="688.5" y1="505" y2="505"/>
        <line style="stroke: #A80036; stroke-width: 1.5;" x1="443.5" x2="688.5" y1="513" y2="513"/>
        <text fill="#000000" font-family="sans-serif" font-size="11" lengthAdjust="spacingAndGlyphs" textLength="235"
              x="448.5" y="527.2104">public BackupCalculator(int memorySize);
        </text>
        <text fill="#000000" font-family="sans-serif" font-size="11" lengthAdjust="spacingAndGlyphs" textLength="103"
              x="448.5" y="540.0151">public void save();
        </text><!--class TextFile-->
        <rect fill="#FEFECE" filter="url(#f7m6cvqp1yc2b)" height="137.6328" id="TextFile"
              style="stroke: #A80036; stroke-width: 1.5;" width="394" x="564" y="258"/>
        <ellipse cx="733.25" cy="274" fill="#ADD1B2" rx="11" ry="11" style="stroke: #A80036; stroke-width: 1.0;"/>
        <path d="M735.5938,269.6719 L735.7656,269.75 C735.9844,269.4375 736.1875,269.3438 736.4844,269.3438 C736.7813,269.3438 737.0625,269.4844 737.2188,269.75 C737.3125,269.9063 737.3281,270.0313 737.3281,270.4688 L737.3281,271.8906 C737.3281,272.3125 737.2969,272.5 737.1875,272.6563 C737.0156,272.875 736.75,273.0156 736.4844,273.0156 C736.2656,273.0156 736.0313,272.9063 735.8906,272.7656 C735.75,272.6406 735.7188,272.5156 735.6563,272.1094 C735.5625,271.7031 735.3906,271.4844 734.9063,271.2031 C734.4375,270.9531 733.8281,270.7969 733.25,270.7969 C731.5156,270.7969 730.2656,272.1094 730.2656,273.8906 L730.2656,274.9844 C730.2656,276.6875 731.5625,277.7813 733.6094,277.7813 C734.375,277.7813 735.0625,277.6563 735.4844,277.3906 C735.6719,277.2969 735.6719,277.2969 736.125,276.8125 C736.3125,276.625 736.5156,276.5469 736.7344,276.5469 C737.2031,276.5469 737.5938,276.9375 737.5938,277.3906 C737.5938,277.7813 737.2656,278.2344 736.6875,278.6406 C735.9375,279.1875 734.7813,279.4844 733.5625,279.4844 C730.6719,279.4844 728.5625,277.5938 728.5625,275.0156 L728.5625,273.8906 C728.5625,271.1719 730.5625,269.0938 733.1875,269.0938 C734.0625,269.0938 734.6563,269.2344 735.5938,269.6719 Z "/>
        <text fill="#000000" font-family="sans-serif" font-size="12" lengthAdjust="spacingAndGlyphs" textLength="47"
              x="753.75" y="278.1543">TextFile
        </text>
        <line style="stroke: #A80036; stroke-width: 1.5;" x1="565" x2="957" y1="290" y2="290"/>
        <text fill="#000000" font-family="sans-serif" font-size="11" lengthAdjust="spacingAndGlyphs" textLength="152"
              x="570" y="304.2104">private BufferedWriter fW_;
        </text>
        <text fill="#000000" font-family="sans-serif" font-size="11" lengthAdjust="spacingAndGlyphs" textLength="157"
              x="570" y="317.0151">private BufferedReader fR_;
        </text>
        <text fill="#000000" font-family="sans-serif" font-size="11" lengthAdjust="spacingAndGlyphs" textLength="114"
              x="570" y="329.8198">private char mode_;
        </text>
        <line style="stroke: #A80036; stroke-width: 1.5;" x1="565" x2="957" y1="336.4141" y2="336.4141"/>
        <text fill="#000000" font-family="sans-serif" font-size="11" lengthAdjust="spacingAndGlyphs" textLength="382"
              x="570" y="350.6245">public void open(String filename, String mode) throws IOException;
        </text>
        <text fill="#000000" font-family="sans-serif" font-size="11" lengthAdjust="spacingAndGlyphs" textLength="219"
              x="570" y="363.4292">public void close() throws IOException;
        </text>
        <text fill="#000000" font-family="sans-serif" font-size="11" lengthAdjust="spacingAndGlyphs" textLength="226"
              x="570" y="376.2339">public String read() throws IOException;
        </text>
        <text fill="#000000" font-family="sans-serif" font-size="11" lengthAdjust="spacingAndGlyphs" textLength="262"
              x="570" y="389.0386">public void write(String s) throws IOException;
        </text><!--class UdpSender-->
        <rect fill="#FEFECE" filter="url(#f7m6cvqp1yc2b)" height="86.4141" id="UdpSender"
              style="stroke: #A80036; stroke-width: 1.5;" width="316" x="213" y="284"/>
        <ellipse cx="331.75" cy="300" fill="#ADD1B2" rx="11" ry="11" style="stroke: #A80036; stroke-width: 1.0;"/>
        <path d="M334.0938,295.6719 L334.2656,295.75 C334.4844,295.4375 334.6875,295.3438 334.9844,295.3438 C335.2813,295.3438 335.5625,295.4844 335.7188,295.75 C335.8125,295.9063 335.8281,296.0313 335.8281,296.4688 L335.8281,297.8906 C335.8281,298.3125 335.7969,298.5 335.6875,298.6563 C335.5156,298.875 335.25,299.0156 334.9844,299.0156 C334.7656,299.0156 334.5313,298.9063 334.3906,298.7656 C334.25,298.6406 334.2188,298.5156 334.1563,298.1094 C334.0625,297.7031 333.8906,297.4844 333.4063,297.2031 C332.9375,296.9531 332.3281,296.7969 331.75,296.7969 C330.0156,296.7969 328.7656,298.1094 328.7656,299.8906 L328.7656,300.9844 C328.7656,302.6875 330.0625,303.7813 332.1094,303.7813 C332.875,303.7813 333.5625,303.6563 333.9844,303.3906 C334.1719,303.2969 334.1719,303.2969 334.625,302.8125 C334.8125,302.625 335.0156,302.5469 335.2344,302.5469 C335.7031,302.5469 336.0938,302.9375 336.0938,303.3906 C336.0938,303.7813 335.7656,304.2344 335.1875,304.6406 C334.4375,305.1875 333.2813,305.4844 332.0625,305.4844 C329.1719,305.4844 327.0625,303.5938 327.0625,301.0156 L327.0625,299.8906 C327.0625,297.1719 329.0625,295.0938 331.6875,295.0938 C332.5625,295.0938 333.1563,295.2344 334.0938,295.6719 Z "/>
        <text fill="#000000" font-family="sans-serif" font-size="12" lengthAdjust="spacingAndGlyphs" textLength="70"
              x="352.25" y="304.1543">UdpSender
        </text>
        <line style="stroke: #A80036; stroke-width: 1.5;" x1="214" x2="528" y1="316" y2="316"/>
        <text fill="#000000" font-family="sans-serif" font-size="11" lengthAdjust="spacingAndGlyphs" textLength="94"
              x="219" y="330.2104">private int port_;
        </text>
        <line style="stroke: #A80036; stroke-width: 1.5;" x1="214" x2="528" y1="336.8047" y2="336.8047"/>
        <text fill="#000000" font-family="sans-serif" font-size="11" lengthAdjust="spacingAndGlyphs" textLength="153"
              x="219" y="351.0151">public UdpSender(int port);
        </text>
        <text fill="#000000" font-family="sans-serif" font-size="11" lengthAdjust="spacingAndGlyphs" textLength="304"
              x="219" y="363.8198">public void send(String destination, String message);
        </text><!--class UdpReceiver-->
        <rect fill="#FEFECE" filter="url(#f7m6cvqp1yc2b)" height="86.4141" id="UdpReceiver"
              style="stroke: #A80036; stroke-width: 1.5;" width="172" x="6" y="284"/>
        <ellipse cx="48.9" cy="300" fill="#ADD1B2" rx="11" ry="11" style="stroke: #A80036; stroke-width: 1.0;"/>
        <path d="M51.2438,295.6719 L51.4156,295.75 C51.6344,295.4375 51.8375,295.3438 52.1344,295.3438 C52.4313,295.3438 52.7125,295.4844 52.8688,295.75 C52.9625,295.9063 52.9781,296.0313 52.9781,296.4688 L52.9781,297.8906 C52.9781,298.3125 52.9469,298.5 52.8375,298.6563 C52.6656,298.875 52.4,299.0156 52.1344,299.0156 C51.9156,299.0156 51.6813,298.9063 51.5406,298.7656 C51.4,298.6406 51.3688,298.5156 51.3063,298.1094 C51.2125,297.7031 51.0406,297.4844 50.5563,297.2031 C50.0875,296.9531 49.4781,296.7969 48.9,296.7969 C47.1656,296.7969 45.9156,298.1094 45.9156,299.8906 L45.9156,300.9844 C45.9156,302.6875 47.2125,303.7813 49.2594,303.7813 C50.025,303.7813 50.7125,303.6563 51.1344,303.3906 C51.3219,303.2969 51.3219,303.2969 51.775,302.8125 C51.9625,302.625 52.1656,302.5469 52.3844,302.5469 C52.8531,302.5469 53.2438,302.9375 53.2438,303.3906 C53.2438,303.7813 52.9156,304.2344 52.3375,304.6406 C51.5875,305.1875 50.4313,305.4844 49.2125,305.4844 C46.3219,305.4844 44.2125,303.5938 44.2125,301.0156 L44.2125,299.8906 C44.2125,297.1719 46.2125,295.0938 48.8375,295.0938 C49.7125,295.0938 50.3063,295.2344 51.2438,295.6719 Z "/>
        <text fill="#000000" font-family="sans-serif" font-size="12" lengthAdjust="spacingAndGlyphs" textLength="78"
              x="69.1" y="304.1543">UdpReceiver
        </text>
        <line style="stroke: #A80036; stroke-width: 1.5;" x1="7" x2="177" y1="316" y2="316"/>
        <text fill="#000000" font-family="sans-serif" font-size="11" lengthAdjust="spacingAndGlyphs" textLength="94"
              x="12" y="330.2104">private int port_;
        </text>
        <line style="stroke: #A80036; stroke-width: 1.5;" x1="7" x2="177" y1="336.8047" y2="336.8047"/>
        <text fill="#000000" font-family="sans-serif" font-size="11" lengthAdjust="spacingAndGlyphs" textLength="160"
              x="12" y="351.0151">public UdpReceiver(int port);
        </text>
        <text fill="#000000" font-family="sans-serif" font-size="11" lengthAdjust="spacingAndGlyphs" textLength="128"
              x="12" y="363.8198">public String receive();
        </text><!--class Operation-->
        <rect fill="#FEFECE" filter="url(#f7m6cvqp1yc2b)" height="48" id="Operation"
              style="stroke: #A80036; stroke-width: 1.5;" width="94" x="1051" y="8"/>
        <ellipse cx="1066" cy="24" fill="#ADD1B2" rx="11" ry="11" style="stroke: #A80036; stroke-width: 1.0;"/>
        <path d="M1068.3438,19.6719 L1068.5156,19.75 C1068.7344,19.4375 1068.9375,19.3438 1069.2344,19.3438 C1069.5313,19.3438 1069.8125,19.4844 1069.9688,19.75 C1070.0625,19.9063 1070.0781,20.0313 1070.0781,20.4688 L1070.0781,21.8906 C1070.0781,22.3125 1070.0469,22.5 1069.9375,22.6563 C1069.7656,22.875 1069.5,23.0156 1069.2344,23.0156 C1069.0156,23.0156 1068.7813,22.9063 1068.6406,22.7656 C1068.5,22.6406 1068.4688,22.5156 1068.4063,22.1094 C1068.3125,21.7031 1068.1406,21.4844 1067.6563,21.2031 C1067.1875,20.9531 1066.5781,20.7969 1066,20.7969 C1064.2656,20.7969 1063.0156,22.1094 1063.0156,23.8906 L1063.0156,24.9844 C1063.0156,26.6875 1064.3125,27.7813 1066.3594,27.7813 C1067.125,27.7813 1067.8125,27.6563 1068.2344,27.3906 C1068.4219,27.2969 1068.4219,27.2969 1068.875,26.8125 C1069.0625,26.625 1069.2656,26.5469 1069.4844,26.5469 C1069.9531,26.5469 1070.3438,26.9375 1070.3438,27.3906 C1070.3438,27.7813 1070.0156,28.2344 1069.4375,28.6406 C1068.6875,29.1875 1067.5313,29.4844 1066.3125,29.4844 C1063.4219,29.4844 1061.3125,27.5938 1061.3125,25.0156 L1061.3125,23.8906 C1061.3125,21.1719 1063.3125,19.0938 1065.9375,19.0938 C1066.8125,19.0938 1067.4063,19.2344 1068.3438,19.6719 Z "/>
        <text fill="#000000" font-family="sans-serif" font-size="12" lengthAdjust="spacingAndGlyphs" textLength="62"
              x="1080" y="28.1543">Operation
        </text>
        <line style="stroke: #A80036; stroke-width: 1.5;" x1="1052" x2="1144" y1="40" y2="40"/>
        <line style="stroke: #A80036; stroke-width: 1.5;" x1="1052" x2="1144" y1="48"
              y2="48"/><!--class MathematicalOperation-->
        <rect fill="#FEFECE" filter="url(#f7m6cvqp1yc2b)" height="48" id="MathematicalOperation"
              style="stroke: #A80036; stroke-width: 1.5;" width="178" x="1009" y="133"/>
        <ellipse cx="1024" cy="149" fill="#ADD1B2" rx="11" ry="11" style="stroke: #A80036; stroke-width: 1.0;"/>
        <path d="M1026.3438,144.6719 L1026.5156,144.75 C1026.7344,144.4375 1026.9375,144.3438 1027.2344,144.3438 C1027.5313,144.3438 1027.8125,144.4844 1027.9688,144.75 C1028.0625,144.9063 1028.0781,145.0313 1028.0781,145.4688 L1028.0781,146.8906 C1028.0781,147.3125 1028.0469,147.5 1027.9375,147.6563 C1027.7656,147.875 1027.5,148.0156 1027.2344,148.0156 C1027.0156,148.0156 1026.7813,147.9063 1026.6406,147.7656 C1026.5,147.6406 1026.4688,147.5156 1026.4063,147.1094 C1026.3125,146.7031 1026.1406,146.4844 1025.6563,146.2031 C1025.1875,145.9531 1024.5781,145.7969 1024,145.7969 C1022.2656,145.7969 1021.0156,147.1094 1021.0156,148.8906 L1021.0156,149.9844 C1021.0156,151.6875 1022.3125,152.7813 1024.3594,152.7813 C1025.125,152.7813 1025.8125,152.6563 1026.2344,152.3906 C1026.4219,152.2969 1026.4219,152.2969 1026.875,151.8125 C1027.0625,151.625 1027.2656,151.5469 1027.4844,151.5469 C1027.9531,151.5469 1028.3438,151.9375 1028.3438,152.3906 C1028.3438,152.7813 1028.0156,153.2344 1027.4375,153.6406 C1026.6875,154.1875 1025.5313,154.4844 1024.3125,154.4844 C1021.4219,154.4844 1019.3125,152.5938 1019.3125,150.0156 L1019.3125,148.8906 C1019.3125,146.1719 1021.3125,144.0938 1023.9375,144.0938 C1024.8125,144.0938 1025.4063,144.2344 1026.3438,144.6719 Z "/>
        <text fill="#000000" font-family="sans-serif" font-size="12" lengthAdjust="spacingAndGlyphs" textLength="146"
              x="1038" y="153.1543">MathematicalOperation
        </text>
        <line style="stroke: #A80036; stroke-width: 1.5;" x1="1010" x2="1186" y1="165" y2="165"/>
        <line style="stroke: #A80036; stroke-width: 1.5;" x1="1010" x2="1186" y1="173"
              y2="173"/><!--link Operation to MathematicalOperation-->
        <path d="M1098,76.172 C1098,95.293 1098,117.016 1098,132.968 " fill="none" id="Operation-MathematicalOperation"
              style="stroke: #A80036; stroke-width: 1.0;"/>
        <polygon fill="none" points="1091,76.135,1098,56.135,1105,76.135,1091,76.135"
                 style="stroke: #A80036; stroke-width: 1.0;"/>
        <text fill="#000000" font-family="sans-serif" font-size="13" lengthAdjust="spacingAndGlyphs" textLength="71"
              x="1099" y="99.0669">Inheritance
        </text><!--link MathematicalOperation to Calculator-->
        <path d="M1098,181.007 C1098,202.438 1098,235.361 1098,264.42 " fill="none"
              id="MathematicalOperation-Calculator" style="stroke: #A80036; stroke-width: 1.0;"/>
        <polygon fill="#A80036" points="1098,277.445,1102,271.445,1098,265.445,1094,271.445,1098,277.445"
                 style="stroke: #A80036; stroke-width: 1.0;"/>
        <text fill="#000000" font-family="sans-serif" font-size="13" lengthAdjust="spacingAndGlyphs" textLength="68"
              x="1099" y="224.0669">operations
        </text>
        <text fill="#000000" font-family="sans-serif" font-size="13" lengthAdjust="spacingAndGlyphs" textLength="7"
              x="1090.1031" y="201.1646">*
        </text>
        <text fill="#000000" font-family="sans-serif" font-size="13" lengthAdjust="spacingAndGlyphs" textLength="8"
              x="1089.4375" y="266.4825">1
        </text><!--link TextFile to BackupCalculator-->
        <path d="M687.557,396.17 C663.215,418.765 636.739,443.34 614.729,463.7697 " fill="none"
              id="TextFile-BackupCalculator" style="stroke: #A80036; stroke-width: 1.0;"/>
        <polygon fill="#A80036"
                 points="604.954,472.8426,612.0728,471.6924,613.749,464.6788,606.6303,465.829,604.954,472.8426"
                 style="stroke: #A80036; stroke-width: 1.0;"/>
        <text fill="#000000" font-family="sans-serif" font-size="13" lengthAdjust="spacingAndGlyphs" textLength="9"
              x="652" y="439.0669">ft
        </text>
        <text fill="#000000" font-family="sans-serif" font-size="13" lengthAdjust="spacingAndGlyphs" textLength="8"
              x="671.9337" y="415.8087">1
        </text>
        <text fill="#000000" font-family="sans-serif" font-size="13" lengthAdjust="spacingAndGlyphs" textLength="8"
              x="603.1802" y="462.0015">1
        </text><!--link Calculator to BackupCalculator-->
        <path d="M998.796,385.815 C991.183,389.472 983.53,392.916 976,396 C882.735,434.197 772.363,463.7868 689.643,483.0888 "
              fill="none" id="Calculator-BackupCalculator" style="stroke: #A80036; stroke-width: 1.0;"/>
        <polygon fill="none" points="995.96,379.406,1016.97,376.674,1002.251,391.914,995.96,379.406"
                 style="stroke: #A80036; stroke-width: 1.0;"/>
        <text fill="#000000" font-family="sans-serif" font-size="13" lengthAdjust="spacingAndGlyphs" textLength="71"
              x="889" y="439.0669">Inheritance
        </text><!--link UdpSender to BackupCalculator-->
        <path d="M416.719,370.436 C446.989,398.533 486.64,435.337 517.468,463.9525 " fill="none"
              id="UdpSender-BackupCalculator" style="stroke: #A80036; stroke-width: 1.0;"/>
        <polygon fill="#A80036"
                 points="527.144,472.9341,525.4677,465.9205,518.349,464.7703,520.0252,471.7839,527.144,472.9341"
                 style="stroke: #A80036; stroke-width: 1.0;"/>
        <text fill="#000000" font-family="sans-serif" font-size="13" lengthAdjust="spacingAndGlyphs" textLength="44"
              x="492" y="439.0669">sender
        </text>
        <text fill="#000000" font-family="sans-serif" font-size="13" lengthAdjust="spacingAndGlyphs" textLength="8"
              x="415.368" y="390.5984">1
        </text>
        <text fill="#000000" font-family="sans-serif" font-size="13" lengthAdjust="spacingAndGlyphs" textLength="8"
              x="511.2424" y="461.8324">1
        </text><!--link UdpReceiver to BackupCalculator-->
        <path d="M149.99,370.032 C164.552,379.418 180.467,388.73 196,396 C270.459,430.849 358.301,458.2056 429.706,477.2682 "
              fill="none" id="UdpReceiver-BackupCalculator" style="stroke: #A80036; stroke-width: 1.0;"/>
        <polygon fill="#A80036"
                 points="442.383,480.612,437.6017,475.214,430.7799,477.5513,435.5612,482.9494,442.383,480.612"
                 style="stroke: #A80036; stroke-width: 1.0;"/>
        <text fill="#000000" font-family="sans-serif" font-size="13" lengthAdjust="spacingAndGlyphs" textLength="51"
              x="315" y="439.0669">receiver
        </text>
        <text fill="#000000" font-family="sans-serif" font-size="13" lengthAdjust="spacingAndGlyphs" textLength="8"
              x="150.9321" y="390.445">1
        </text>
        <text fill="#000000" font-family="sans-serif" font-size="13" lengthAdjust="spacingAndGlyphs" textLength="8"
              x="426.6063" y="475.447">1
        </text><!--
@startuml
class Calculator {
    private int index_r;

    public Calculator();
    public void solve(String operation);
    public String toString();
} 

class BackupCalculator {
    public BackupCalculator(int memorySize);
    public void save();
}

class TextFile {
    private BufferedWriter fW_;
    private BufferedReader fR_;
    private char mode_;

    public void open(String filename, String mode) throws IOException;
    public void close() throws IOException;
    public String read() throws IOException;
    public void write(String s) throws IOException;
}

class UdpSender {
    private int port_;

    public UdpSender(int port);
    public void send(String destination, String message);
}

class UdpReceiver {
    private int port_;

    public UdpReceiver(int port);
    public String receive();
}

Operation <|-down- MathematicalOperation: Inheritance
Calculator "1" *-up- "*" MathematicalOperation: operations
BackupCalculator "1" *-up- "1" TextFile: ft
Calculator <|-down- BackupCalculator: Inheritance
BackupCalculator "1" *-up- "1" UdpSender: sender
BackupCalculator "1" *-up- "1" UdpReceiver: receiver
@enduml

PlantUML version 1.2019.03(Sun Mar 10 11:04:44 UTC 2019)
(GPL source distribution)
Java Runtime: Java(TM) SE Runtime Environment
JVM: Java HotSpot(TM) 64-Bit Server VM
Java Version: 1.7.0_25-b15
Operating System: Linux
Default Encoding: UTF-8
Language: en
Country: US
-->
    </g>
</svg>