<?xml version="1.0" encoding="UTF-8" standalone="no"?>
<svg xmlns="http://www.w3.org/2000/svg"
     contentScriptType="application/ecmascript" contentStyleType="text/css" height="370px" preserveAspectRatio="none"
     style="width:972px;height:370px;" version="1.1" viewBox="0 0 972 370" width="972px" zoomAndPan="magnify">
    <defs>
        <filter height="300%" id="f1lo5o5rmttmgj" width="300%" x="-1" y="-1">
            <feGaussianBlur result="blurOut" stdDeviation="2.0"/>
            <feColorMatrix in="blurOut" result="blurOut2" type="matrix"
                           values="0 0 0 0 0 0 0 0 0 0 0 0 0 0 0 0 0 0 .4 0"/>
            <feOffset dx="4.0" dy="4.0" in="blurOut2" result="blurOut3"/>
            <feBlend in="SourceGraphic" in2="blurOut3" mode="normal"/>
        </filter>
    </defs>
    <g><!--class WindowListener-->
        <rect fill="#FEFECE" filter="url(#f1lo5o5rmttmgj)" height="48" id="WindowListener"
              style="stroke: #A80036; stroke-width: 1.5;" width="131" x="564.5" y="27"/>
        <ellipse cx="579.5" cy="43" fill="#B4A7E5" rx="11" ry="11" style="stroke: #A80036; stroke-width: 1.0;"/>
        <path d="M580.4531,39.7813 L580.4531,46.2969 L582.1719,46.2969 C582.625,46.2969 582.7656,46.3281 582.9375,46.4531 C583.1719,46.625 583.2813,46.875 583.2813,47.1563 C583.2813,47.7188 582.9219,48 582.1719,48 L577.0313,48 C576.625,48 576.4219,47.9531 576.2656,47.8281 C576.0469,47.6719 575.9063,47.4063 575.9063,47.1563 C575.9063,46.8594 576.0625,46.5781 576.3125,46.4219 C576.4688,46.3125 576.5938,46.2969 577.0313,46.2969 L578.75,46.2969 L578.75,39.7813 L577.0313,39.7813 C576.6094,39.7813 576.4219,39.75 576.2656,39.6406 C576.0469,39.4688 575.9063,39.2188 575.9063,38.9375 C575.9063,38.6563 576.0625,38.3594 576.3125,38.2031 C576.4688,38.1094 576.5938,38.0938 577.0313,38.0938 L582.1719,38.0938 C582.625,38.0938 582.7656,38.125 582.9375,38.2344 C583.1719,38.4063 583.2813,38.6719 583.2813,38.9375 C583.2813,39.2344 583.1406,39.5156 582.875,39.6719 C582.75,39.75 582.5625,39.7813 582.1719,39.7813 Z "/>
        <text fill="#000000" font-family="sans-serif" font-size="12" font-style="italic" lengthAdjust="spacingAndGlyphs"
              textLength="99" x="593.5" y="47.1543">WindowListener
        </text>
        <line style="stroke: #A80036; stroke-width: 1.5;" x1="565.5" x2="694.5" y1="59" y2="59"/>
        <line style="stroke: #A80036; stroke-width: 1.5;" x1="565.5" x2="694.5" y1="67"
              y2="67"/><!--class ActionListener-->
        <rect fill="#FEFECE" filter="url(#f1lo5o5rmttmgj)" height="48" id="ActionListener"
              style="stroke: #A80036; stroke-width: 1.5;" width="121" x="730.5" y="27"/>
        <ellipse cx="745.5" cy="43" fill="#B4A7E5" rx="11" ry="11" style="stroke: #A80036; stroke-width: 1.0;"/>
        <path d="M746.4531,39.7813 L746.4531,46.2969 L748.1719,46.2969 C748.625,46.2969 748.7656,46.3281 748.9375,46.4531 C749.1719,46.625 749.2813,46.875 749.2813,47.1563 C749.2813,47.7188 748.9219,48 748.1719,48 L743.0313,48 C742.625,48 742.4219,47.9531 742.2656,47.8281 C742.0469,47.6719 741.9063,47.4063 741.9063,47.1563 C741.9063,46.8594 742.0625,46.5781 742.3125,46.4219 C742.4688,46.3125 742.5938,46.2969 743.0313,46.2969 L744.75,46.2969 L744.75,39.7813 L743.0313,39.7813 C742.6094,39.7813 742.4219,39.75 742.2656,39.6406 C742.0469,39.4688 741.9063,39.2188 741.9063,38.9375 C741.9063,38.6563 742.0625,38.3594 742.3125,38.2031 C742.4688,38.1094 742.5938,38.0938 743.0313,38.0938 L748.1719,38.0938 C748.625,38.0938 748.7656,38.125 748.9375,38.2344 C749.1719,38.4063 749.2813,38.6719 749.2813,38.9375 C749.2813,39.2344 749.1406,39.5156 748.875,39.6719 C748.75,39.75 748.5625,39.7813 748.1719,39.7813 Z "/>
        <text fill="#000000" font-family="sans-serif" font-size="12" font-style="italic" lengthAdjust="spacingAndGlyphs"
              textLength="89" x="759.5" y="47.1543">ActionListener
        </text>
        <line style="stroke: #A80036; stroke-width: 1.5;" x1="731.5" x2="850.5" y1="59" y2="59"/>
        <line style="stroke: #A80036; stroke-width: 1.5;" x1="731.5" x2="850.5" y1="67" y2="67"/><!--class JFrame-->
        <rect fill="#FEFECE" filter="url(#f1lo5o5rmttmgj)" height="48" id="JFrame"
              style="stroke: #A80036; stroke-width: 1.5;" width="74" x="887" y="27"/>
        <ellipse cx="902" cy="43" fill="#ADD1B2" rx="11" ry="11" style="stroke: #A80036; stroke-width: 1.0;"/>
        <path d="M904.3438,38.6719 L904.5156,38.75 C904.7344,38.4375 904.9375,38.3438 905.2344,38.3438 C905.5313,38.3438 905.8125,38.4844 905.9688,38.75 C906.0625,38.9063 906.0781,39.0313 906.0781,39.4688 L906.0781,40.8906 C906.0781,41.3125 906.0469,41.5 905.9375,41.6563 C905.7656,41.875 905.5,42.0156 905.2344,42.0156 C905.0156,42.0156 904.7813,41.9063 904.6406,41.7656 C904.5,41.6406 904.4688,41.5156 904.4063,41.1094 C904.3125,40.7031 904.1406,40.4844 903.6563,40.2031 C903.1875,39.9531 902.5781,39.7969 902,39.7969 C900.2656,39.7969 899.0156,41.1094 899.0156,42.8906 L899.0156,43.9844 C899.0156,45.6875 900.3125,46.7813 902.3594,46.7813 C903.125,46.7813 903.8125,46.6563 904.2344,46.3906 C904.4219,46.2969 904.4219,46.2969 904.875,45.8125 C905.0625,45.625 905.2656,45.5469 905.4844,45.5469 C905.9531,45.5469 906.3438,45.9375 906.3438,46.3906 C906.3438,46.7813 906.0156,47.2344 905.4375,47.6406 C904.6875,48.1875 903.5313,48.4844 902.3125,48.4844 C899.4219,48.4844 897.3125,46.5938 897.3125,44.0156 L897.3125,42.8906 C897.3125,40.1719 899.3125,38.0938 901.9375,38.0938 C902.8125,38.0938 903.4063,38.2344 904.3438,38.6719 Z "/>
        <text fill="#000000" font-family="sans-serif" font-size="12" lengthAdjust="spacingAndGlyphs" textLength="42"
              x="916" y="47.1543">JFrame
        </text>
        <line style="stroke: #A80036; stroke-width: 1.5;" x1="888" x2="960" y1="59" y2="59"/>
        <line style="stroke: #A80036; stroke-width: 1.5;" x1="888" x2="960" y1="67"
              y2="67"/><!--class SwingCalculator-->
        <rect fill="#FEFECE" filter="url(#f1lo5o5rmttmgj)" height="188.8516" id="SwingCalculator"
              style="stroke: #A80036; stroke-width: 1.5;" width="290" x="485" y="171"/>
        <ellipse cx="576.25" cy="187" fill="#ADD1B2" rx="11" ry="11" style="stroke: #A80036; stroke-width: 1.0;"/>
        <path d="M578.5938,182.6719 L578.7656,182.75 C578.9844,182.4375 579.1875,182.3438 579.4844,182.3438 C579.7813,182.3438 580.0625,182.4844 580.2188,182.75 C580.3125,182.9063 580.3281,183.0313 580.3281,183.4688 L580.3281,184.8906 C580.3281,185.3125 580.2969,185.5 580.1875,185.6563 C580.0156,185.875 579.75,186.0156 579.4844,186.0156 C579.2656,186.0156 579.0313,185.9063 578.8906,185.7656 C578.75,185.6406 578.7188,185.5156 578.6563,185.1094 C578.5625,184.7031 578.3906,184.4844 577.9063,184.2031 C577.4375,183.9531 576.8281,183.7969 576.25,183.7969 C574.5156,183.7969 573.2656,185.1094 573.2656,186.8906 L573.2656,187.9844 C573.2656,189.6875 574.5625,190.7813 576.6094,190.7813 C577.375,190.7813 578.0625,190.6563 578.4844,190.3906 C578.6719,190.2969 578.6719,190.2969 579.125,189.8125 C579.3125,189.625 579.5156,189.5469 579.7344,189.5469 C580.2031,189.5469 580.5938,189.9375 580.5938,190.3906 C580.5938,190.7813 580.2656,191.2344 579.6875,191.6406 C578.9375,192.1875 577.7813,192.4844 576.5625,192.4844 C573.6719,192.4844 571.5625,190.5938 571.5625,188.0156 L571.5625,186.8906 C571.5625,184.1719 573.5625,182.0938 576.1875,182.0938 C577.0625,182.0938 577.6563,182.2344 578.5938,182.6719 Z "/>
        <text fill="#000000" font-family="sans-serif" font-size="12" lengthAdjust="spacingAndGlyphs" textLength="99"
              x="596.75" y="191.1543">SwingCalculator
        </text>
        <line style="stroke: #A80036; stroke-width: 1.5;" x1="486" x2="774" y1="203" y2="203"/>
        <text fill="#000000" font-family="sans-serif" font-size="11" lengthAdjust="spacingAndGlyphs" textLength="174"
              x="491" y="217.2104">private JTextField tfOperation_;
        </text>
        <text fill="#000000" font-family="sans-serif" font-size="11" lengthAdjust="spacingAndGlyphs" textLength="156"
              x="491" y="230.0151">private JTextArea taResult_;
        </text>
        <line style="stroke: #A80036; stroke-width: 1.5;" x1="486" x2="774" y1="236.6094" y2="236.6094"/>
        <text fill="#000000" font-family="sans-serif" font-size="11" lengthAdjust="spacingAndGlyphs" textLength="140"
              x="491" y="250.8198">public SwingCalculetor();
        </text>
        <text fill="#000000" font-family="sans-serif" font-size="11" lengthAdjust="spacingAndGlyphs" textLength="263"
              x="491" y="263.6245">public void windowActivated(WindowEvent evt);
        </text>
        <text fill="#000000" font-family="sans-serif" font-size="11" lengthAdjust="spacingAndGlyphs" textLength="278"
              x="491" y="276.4292">public void windowDeactivated(WindowEvent evt);
        </text>
        <text fill="#000000" font-family="sans-serif" font-size="11" lengthAdjust="spacingAndGlyphs" textLength="251"
              x="491" y="289.2339">public void windowClosed(WindowEvent evt);
        </text>
        <text fill="#000000" font-family="sans-serif" font-size="11" lengthAdjust="spacingAndGlyphs" textLength="254"
              x="491" y="302.0386">public void windowClosing(WindowEvent evt);
        </text>
        <text fill="#000000" font-family="sans-serif" font-size="11" lengthAdjust="spacingAndGlyphs" textLength="259"
              x="491" y="314.8433">public void windowIconified(WindowEvent evt);
        </text>
        <text fill="#000000" font-family="sans-serif" font-size="11" lengthAdjust="spacingAndGlyphs" textLength="274"
              x="491" y="327.6479">public void windowDeiconified(WindowEvent evt);
        </text>
        <text fill="#000000" font-family="sans-serif" font-size="11" lengthAdjust="spacingAndGlyphs" textLength="256"
              x="491" y="340.4526">public void windowOpened(WindowEvent evt);
        </text>
        <text fill="#000000" font-family="sans-serif" font-size="11" lengthAdjust="spacingAndGlyphs" textLength="256"
              x="491" y="353.2573">public void actionPerformed(ActionEvent evt);
        </text><!--class UdpSender-->
        <rect fill="#FEFECE" filter="url(#f1lo5o5rmttmgj)" height="86.4141" id="UdpSender"
              style="stroke: #A80036; stroke-width: 1.5;" width="316" x="213" y="8"/>
        <ellipse cx="331.75" cy="24" fill="#ADD1B2" rx="11" ry="11" style="stroke: #A80036; stroke-width: 1.0;"/>
        <path d="M334.0938,19.6719 L334.2656,19.75 C334.4844,19.4375 334.6875,19.3438 334.9844,19.3438 C335.2813,19.3438 335.5625,19.4844 335.7188,19.75 C335.8125,19.9063 335.8281,20.0313 335.8281,20.4688 L335.8281,21.8906 C335.8281,22.3125 335.7969,22.5 335.6875,22.6563 C335.5156,22.875 335.25,23.0156 334.9844,23.0156 C334.7656,23.0156 334.5313,22.9063 334.3906,22.7656 C334.25,22.6406 334.2188,22.5156 334.1563,22.1094 C334.0625,21.7031 333.8906,21.4844 333.4063,21.2031 C332.9375,20.9531 332.3281,20.7969 331.75,20.7969 C330.0156,20.7969 328.7656,22.1094 328.7656,23.8906 L328.7656,24.9844 C328.7656,26.6875 330.0625,27.7813 332.1094,27.7813 C332.875,27.7813 333.5625,27.6563 333.9844,27.3906 C334.1719,27.2969 334.1719,27.2969 334.625,26.8125 C334.8125,26.625 335.0156,26.5469 335.2344,26.5469 C335.7031,26.5469 336.0938,26.9375 336.0938,27.3906 C336.0938,27.7813 335.7656,28.2344 335.1875,28.6406 C334.4375,29.1875 333.2813,29.4844 332.0625,29.4844 C329.1719,29.4844 327.0625,27.5938 327.0625,25.0156 L327.0625,23.8906 C327.0625,21.1719 329.0625,19.0938 331.6875,19.0938 C332.5625,19.0938 333.1563,19.2344 334.0938,19.6719 Z "/>
        <text fill="#000000" font-family="sans-serif" font-size="12" lengthAdjust="spacingAndGlyphs" textLength="70"
              x="352.25" y="28.1543">UdpSender
        </text>
        <line style="stroke: #A80036; stroke-width: 1.5;" x1="214" x2="528" y1="40" y2="40"/>
        <text fill="#000000" font-family="sans-serif" font-size="11" lengthAdjust="spacingAndGlyphs" textLength="94"
              x="219" y="54.2104">private int port_;
        </text>
        <line style="stroke: #A80036; stroke-width: 1.5;" x1="214" x2="528" y1="60.8047" y2="60.8047"/>
        <text fill="#000000" font-family="sans-serif" font-size="11" lengthAdjust="spacingAndGlyphs" textLength="153"
              x="219" y="75.0151">public UdpSender(int port);
        </text>
        <text fill="#000000" font-family="sans-serif" font-size="11" lengthAdjust="spacingAndGlyphs" textLength="304"
              x="219" y="87.8198">public void send(String destination, String message);
        </text><!--class UdpReceiver-->
        <rect fill="#FEFECE" filter="url(#f1lo5o5rmttmgj)" height="86.4141" id="UdpReceiver"
              style="stroke: #A80036; stroke-width: 1.5;" width="172" x="6" y="8"/>
        <ellipse cx="48.9" cy="24" fill="#ADD1B2" rx="11" ry="11" style="stroke: #A80036; stroke-width: 1.0;"/>
        <path d="M51.2438,19.6719 L51.4156,19.75 C51.6344,19.4375 51.8375,19.3438 52.1344,19.3438 C52.4313,19.3438 52.7125,19.4844 52.8688,19.75 C52.9625,19.9063 52.9781,20.0313 52.9781,20.4688 L52.9781,21.8906 C52.9781,22.3125 52.9469,22.5 52.8375,22.6563 C52.6656,22.875 52.4,23.0156 52.1344,23.0156 C51.9156,23.0156 51.6813,22.9063 51.5406,22.7656 C51.4,22.6406 51.3688,22.5156 51.3063,22.1094 C51.2125,21.7031 51.0406,21.4844 50.5563,21.2031 C50.0875,20.9531 49.4781,20.7969 48.9,20.7969 C47.1656,20.7969 45.9156,22.1094 45.9156,23.8906 L45.9156,24.9844 C45.9156,26.6875 47.2125,27.7813 49.2594,27.7813 C50.025,27.7813 50.7125,27.6563 51.1344,27.3906 C51.3219,27.2969 51.3219,27.2969 51.775,26.8125 C51.9625,26.625 52.1656,26.5469 52.3844,26.5469 C52.8531,26.5469 53.2438,26.9375 53.2438,27.3906 C53.2438,27.7813 52.9156,28.2344 52.3375,28.6406 C51.5875,29.1875 50.4313,29.4844 49.2125,29.4844 C46.3219,29.4844 44.2125,27.5938 44.2125,25.0156 L44.2125,23.8906 C44.2125,21.1719 46.2125,19.0938 48.8375,19.0938 C49.7125,19.0938 50.3063,19.2344 51.2438,19.6719 Z "/>
        <text fill="#000000" font-family="sans-serif" font-size="12" lengthAdjust="spacingAndGlyphs" textLength="78"
              x="69.1" y="28.1543">UdpReceiver
        </text>
        <line style="stroke: #A80036; stroke-width: 1.5;" x1="7" x2="177" y1="40" y2="40"/>
        <text fill="#000000" font-family="sans-serif" font-size="11" lengthAdjust="spacingAndGlyphs" textLength="94"
              x="12" y="54.2104">private int port_;
        </text>
        <line style="stroke: #A80036; stroke-width: 1.5;" x1="7" x2="177" y1="60.8047" y2="60.8047"/>
        <text fill="#000000" font-family="sans-serif" font-size="11" lengthAdjust="spacingAndGlyphs" textLength="160"
              x="12" y="75.0151">public UdpReceiver(int port);
        </text>
        <text fill="#000000" font-family="sans-serif" font-size="11" lengthAdjust="spacingAndGlyphs" textLength="128"
              x="12" y="87.8198">public String receive();
        </text><!--link UdpSender to SwingCalculator-->
        <path d="M422.48,94.237 C446.497,113.943 476.223,138.332 505.599,162.433 " fill="none"
              id="UdpSender-SwingCalculator" style="stroke: #A80036; stroke-width: 1.0;"/>
        <polygon fill="#A80036"
                 points="515.964,170.938,513.8626,164.0399,506.6869,163.3264,508.7883,170.2246,515.964,170.938"
                 style="stroke: #A80036; stroke-width: 1.0;"/>
        <text fill="#000000" font-family="sans-serif" font-size="13" lengthAdjust="spacingAndGlyphs" textLength="44"
              x="479" y="137.0669">sender
        </text>
        <text fill="#000000" font-family="sans-serif" font-size="13" lengthAdjust="spacingAndGlyphs" textLength="8"
              x="422.0471" y="114.3677">1
        </text>
        <text fill="#000000" font-family="sans-serif" font-size="13" lengthAdjust="spacingAndGlyphs" textLength="8"
              x="498.558" y="159.883">1
        </text><!--link UdpReceiver to SwingCalculator-->
        <path d="M178.232,87.263 C183.903,89.551 189.531,91.813 195,94 C286.793,130.702 389.777,171.102 472.491,203.36 "
              fill="none" id="UdpReceiver-SwingCalculator" style="stroke: #A80036; stroke-width: 1.0;"/>
        <polygon fill="#A80036"
                 points="484.805,208.16,480.6676,202.2539,473.6245,203.8015,477.7619,209.7076,484.805,208.16"
                 style="stroke: #A80036; stroke-width: 1.0;"/>
        <text fill="#000000" font-family="sans-serif" font-size="13" lengthAdjust="spacingAndGlyphs" textLength="51"
              x="304" y="137.0669">receiver
        </text>
        <text fill="#000000" font-family="sans-serif" font-size="13" lengthAdjust="spacingAndGlyphs" textLength="8"
              x="185.9863" y="86.7896">1
        </text>
        <text fill="#000000" font-family="sans-serif" font-size="13" lengthAdjust="spacingAndGlyphs" textLength="8"
              x="469.1121" y="201.8908">1
        </text><!--link JFrame to SwingCalculator-->
        <path d="M882.152,88.185 C862.458,104.77 838.419,124.388 816,141 C802.608,150.923 788.467,160.997 774.207,170.891 "
              fill="none" id="JFrame-SwingCalculator" style="stroke: #A80036; stroke-width: 1.0;"/>
        <polygon fill="none" points="877.771,82.722,897.542,75.1,886.839,93.388,877.771,82.722"
                 style="stroke: #A80036; stroke-width: 1.0;"/>
        <text fill="#000000" font-family="sans-serif" font-size="13" lengthAdjust="spacingAndGlyphs" textLength="71"
              x="839" y="137.0669">Inheritance
        </text><!--link WindowListener to SwingCalculator-->
        <path d="M630,95.205 C630,116.991 630,144.318 630,170.619 " fill="none" id="WindowListener-SwingCalculator"
              style="stroke: #A80036; stroke-width: 1.0;"/>
        <polygon fill="none" points="623,95.146,630,75.146,637,95.146,623,95.146"
                 style="stroke: #A80036; stroke-width: 1.0;"/>
        <text fill="#000000" font-family="sans-serif" font-size="13" lengthAdjust="spacingAndGlyphs" textLength="71"
              x="631" y="137.0669">Inheritance
        </text><!--link ActionListener to SwingCalculator-->
        <path d="M761.326,91.166 C744.364,113.553 722.308,142.665 701.129,170.619 " fill="none"
              id="ActionListener-SwingCalculator" style="stroke: #A80036; stroke-width: 1.0;"/>
        <polygon fill="none" points="755.806,86.86,773.464,75.146,766.965,95.314,755.806,86.86"
                 style="stroke: #A80036; stroke-width: 1.0;"/>
        <text fill="#000000" font-family="sans-serif" font-size="13" lengthAdjust="spacingAndGlyphs" textLength="71"
              x="736" y="137.0669">Inheritance
        </text><!--
@startuml
interface WindowListener {
}

interface ActionListener{
}

class JFrame {
}

class SwingCalculator {
    private JTextField tfOperation_;
    private JTextArea taResult_;

    public SwingCalculetor();
    public void windowActivated(WindowEvent evt);
    public void windowDeactivated(WindowEvent evt);
    public void windowClosed(WindowEvent evt);
    public void windowClosing(WindowEvent evt);
    public void windowIconified(WindowEvent evt);
    public void windowDeiconified(WindowEvent evt);
    public void windowOpened(WindowEvent evt);
    public void actionPerformed(ActionEvent evt);
} 

class UdpSender {
    private int port_;

    public UdpSender(int port);
    public void send(String destination, String message);
}

class UdpReceiver {
    private int port_;

    public UdpReceiver(int port);
    public String receive();
}

SwingCalculator "1" *-up- "1" UdpSender: sender
SwingCalculator "1" *-up- "1" UdpReceiver: receiver
JFrame <|-down- SwingCalculator: Inheritance
WindowListener <|-down- SwingCalculator: Inheritance
ActionListener <|-down- SwingCalculator: Inheritance
@enduml

PlantUML version 1.2019.03(Sun Mar 10 11:04:44 UTC 2019)
(GPL source distribution)
Java Runtime: Java(TM) SE Runtime Environment
JVM: Java HotSpot(TM) 64-Bit Server VM
Java Version: 1.7.0_25-b15
Operating System: Linux
Default Encoding: UTF-8
Language: en
Country: US
-->
    </g>
</svg>