<?xml version="1.0" encoding="UTF-8" standalone="no"?>
<svg xmlns="http://www.w3.org/2000/svg"
     contentScriptType="application/ecmascript" contentStyleType="text/css" height="1114px" preserveAspectRatio="none"
     style="width:734px;height:1114px;" version="1.1" viewBox="0 0 734 1114" width="734px" zoomAndPan="magnify">
    <defs>
        <filter height="300%" id="f2ky98fv8zamq" width="300%" x="-1" y="-1">
            <feGaussianBlur result="blurOut" stdDeviation="2.0"/>
            <feColorMatrix in="blurOut" result="blurOut2" type="matrix"
                           values="0 0 0 0 0 0 0 0 0 0 0 0 0 0 0 0 0 0 .4 0"/>
            <feOffset dx="4.0" dy="4.0" in="blurOut2" result="blurOut3"/>
            <feBlend in="SourceGraphic" in2="blurOut3" mode="normal"/>
        </filter>
    </defs>
    <g><!--class Operation-->
        <rect fill="#FEFECE" filter="url(#f2ky98fv8zamq)" height="99.2188" id="Operation"
              style="stroke: #A80036; stroke-width: 1.5;" width="254" x="413" y="8"/>
        <ellipse cx="504.75" cy="24" fill="#ADD1B2" rx="11" ry="11" style="stroke: #A80036; stroke-width: 1.0;"/>
        <path d="M507.0938,19.6719 L507.2656,19.75 C507.4844,19.4375 507.6875,19.3438 507.9844,19.3438 C508.2813,19.3438 508.5625,19.4844 508.7188,19.75 C508.8125,19.9063 508.8281,20.0313 508.8281,20.4688 L508.8281,21.8906 C508.8281,22.3125 508.7969,22.5 508.6875,22.6563 C508.5156,22.875 508.25,23.0156 507.9844,23.0156 C507.7656,23.0156 507.5313,22.9063 507.3906,22.7656 C507.25,22.6406 507.2188,22.5156 507.1563,22.1094 C507.0625,21.7031 506.8906,21.4844 506.4063,21.2031 C505.9375,20.9531 505.3281,20.7969 504.75,20.7969 C503.0156,20.7969 501.7656,22.1094 501.7656,23.8906 L501.7656,24.9844 C501.7656,26.6875 503.0625,27.7813 505.1094,27.7813 C505.875,27.7813 506.5625,27.6563 506.9844,27.3906 C507.1719,27.2969 507.1719,27.2969 507.625,26.8125 C507.8125,26.625 508.0156,26.5469 508.2344,26.5469 C508.7031,26.5469 509.0938,26.9375 509.0938,27.3906 C509.0938,27.7813 508.7656,28.2344 508.1875,28.6406 C507.4375,29.1875 506.2813,29.4844 505.0625,29.4844 C502.1719,29.4844 500.0625,27.5938 500.0625,25.0156 L500.0625,23.8906 C500.0625,21.1719 502.0625,19.0938 504.6875,19.0938 C505.5625,19.0938 506.1563,19.2344 507.0938,19.6719 Z "/>
        <text fill="#000000" font-family="sans-serif" font-size="12" lengthAdjust="spacingAndGlyphs" textLength="62"
              x="525.25" y="28.1543">Operation
        </text>
        <line style="stroke: #A80036; stroke-width: 1.5;" x1="414" x2="666" y1="40" y2="40"/>
        <text fill="#000000" font-family="sans-serif" font-size="11" lengthAdjust="spacingAndGlyphs" textLength="145"
              x="419" y="54.2104">private String operation_;
        </text>
        <line style="stroke: #A80036; stroke-width: 1.5;" x1="414" x2="666" y1="60.8047" y2="60.8047"/>
        <text fill="#000000" font-family="sans-serif" font-size="11" lengthAdjust="spacingAndGlyphs" textLength="105"
              x="419" y="75.0151">public Operation();
        </text>
        <text fill="#000000" font-family="sans-serif" font-size="11" lengthAdjust="spacingAndGlyphs" textLength="161"
              x="419" y="87.8198">public String getOperation();
        </text>
        <text fill="#000000" font-family="sans-serif" font-size="11" lengthAdjust="spacingAndGlyphs" textLength="242"
              x="419" y="100.6245">public void setOperation(String operation);
        </text><!--class MathematicalOperation-->
        <rect fill="#FEFECE" filter="url(#f2ky98fv8zamq)" height="99.2188" id="MathematicalOperation"
              style="stroke: #A80036; stroke-width: 1.5;" width="367" x="356.5" y="184"/>
        <ellipse cx="462.75" cy="200" fill="#ADD1B2" rx="11" ry="11" style="stroke: #A80036; stroke-width: 1.0;"/>
        <path d="M465.0938,195.6719 L465.2656,195.75 C465.4844,195.4375 465.6875,195.3438 465.9844,195.3438 C466.2813,195.3438 466.5625,195.4844 466.7188,195.75 C466.8125,195.9063 466.8281,196.0313 466.8281,196.4688 L466.8281,197.8906 C466.8281,198.3125 466.7969,198.5 466.6875,198.6563 C466.5156,198.875 466.25,199.0156 465.9844,199.0156 C465.7656,199.0156 465.5313,198.9063 465.3906,198.7656 C465.25,198.6406 465.2188,198.5156 465.1563,198.1094 C465.0625,197.7031 464.8906,197.4844 464.4063,197.2031 C463.9375,196.9531 463.3281,196.7969 462.75,196.7969 C461.0156,196.7969 459.7656,198.1094 459.7656,199.8906 L459.7656,200.9844 C459.7656,202.6875 461.0625,203.7813 463.1094,203.7813 C463.875,203.7813 464.5625,203.6563 464.9844,203.3906 C465.1719,203.2969 465.1719,203.2969 465.625,202.8125 C465.8125,202.625 466.0156,202.5469 466.2344,202.5469 C466.7031,202.5469 467.0938,202.9375 467.0938,203.3906 C467.0938,203.7813 466.7656,204.2344 466.1875,204.6406 C465.4375,205.1875 464.2813,205.4844 463.0625,205.4844 C460.1719,205.4844 458.0625,203.5938 458.0625,201.0156 L458.0625,199.8906 C458.0625,197.1719 460.0625,195.0938 462.6875,195.0938 C463.5625,195.0938 464.1563,195.2344 465.0938,195.6719 Z "/>
        <text fill="#000000" font-family="sans-serif" font-size="12" lengthAdjust="spacingAndGlyphs" textLength="146"
              x="483.25" y="204.1543">MathematicalOperation
        </text>
        <line style="stroke: #A80036; stroke-width: 1.5;" x1="357.5" x2="722.5" y1="216" y2="216"/>
        <text fill="#000000" font-family="sans-serif" font-size="11" lengthAdjust="spacingAndGlyphs" textLength="128"
              x="362.5" y="230.2104">private double result_;
        </text>
        <line style="stroke: #A80036; stroke-width: 1.5;" x1="357.5" x2="722.5" y1="236.8047" y2="236.8047"/>
        <text fill="#000000" font-family="sans-serif" font-size="11" lengthAdjust="spacingAndGlyphs" textLength="180"
              x="362.5" y="251.0151">public MathematicalOperation();
        </text>
        <text fill="#000000" font-family="sans-serif" font-size="11" lengthAdjust="spacingAndGlyphs" textLength="355"
              x="362.5" y="263.8198">public void solve(String operation) throws OperationException;
        </text>
        <text fill="#000000" font-family="sans-serif" font-size="11" lengthAdjust="spacingAndGlyphs" textLength="132"
              x="362.5" y="276.6245">public String toString();
        </text><!--class Calculator-->
        <rect fill="#FEFECE" filter="url(#f2ky98fv8zamq)" height="99.2188" id="Calculator"
              style="stroke: #A80036; stroke-width: 1.5;" width="210" x="435" y="379.5"/>
        <ellipse cx="504.25" cy="395.5" fill="#ADD1B2" rx="11" ry="11" style="stroke: #A80036; stroke-width: 1.0;"/>
        <path d="M506.5938,391.1719 L506.7656,391.25 C506.9844,390.9375 507.1875,390.8438 507.4844,390.8438 C507.7813,390.8438 508.0625,390.9844 508.2188,391.25 C508.3125,391.4063 508.3281,391.5313 508.3281,391.9688 L508.3281,393.3906 C508.3281,393.8125 508.2969,394 508.1875,394.1563 C508.0156,394.375 507.75,394.5156 507.4844,394.5156 C507.2656,394.5156 507.0313,394.4063 506.8906,394.2656 C506.75,394.1406 506.7188,394.0156 506.6563,393.6094 C506.5625,393.2031 506.3906,392.9844 505.9063,392.7031 C505.4375,392.4531 504.8281,392.2969 504.25,392.2969 C502.5156,392.2969 501.2656,393.6094 501.2656,395.3906 L501.2656,396.4844 C501.2656,398.1875 502.5625,399.2813 504.6094,399.2813 C505.375,399.2813 506.0625,399.1563 506.4844,398.8906 C506.6719,398.7969 506.6719,398.7969 507.125,398.3125 C507.3125,398.125 507.5156,398.0469 507.7344,398.0469 C508.2031,398.0469 508.5938,398.4375 508.5938,398.8906 C508.5938,399.2813 508.2656,399.7344 507.6875,400.1406 C506.9375,400.6875 505.7813,400.9844 504.5625,400.9844 C501.6719,400.9844 499.5625,399.0938 499.5625,396.5156 L499.5625,395.3906 C499.5625,392.6719 501.5625,390.5938 504.1875,390.5938 C505.0625,390.5938 505.6563,390.7344 506.5938,391.1719 Z "/>
        <text fill="#000000" font-family="sans-serif" font-size="12" lengthAdjust="spacingAndGlyphs" textLength="63"
              x="524.75" y="399.6543">Calculator
        </text>
        <line style="stroke: #A80036; stroke-width: 1.5;" x1="436" x2="644" y1="411.5" y2="411.5"/>
        <text fill="#000000" font-family="sans-serif" font-size="11" lengthAdjust="spacingAndGlyphs" textLength="101"
              x="441" y="425.7104">private int index_;
        </text>
        <line style="stroke: #A80036; stroke-width: 1.5;" x1="436" x2="644" y1="432.3047" y2="432.3047"/>
        <text fill="#000000" font-family="sans-serif" font-size="11" lengthAdjust="spacingAndGlyphs" textLength="106"
              x="441" y="446.5151">public Calculator();
        </text>
        <text fill="#000000" font-family="sans-serif" font-size="11" lengthAdjust="spacingAndGlyphs" textLength="198"
              x="441" y="459.3198">public void solve(String operation);
        </text>
        <text fill="#000000" font-family="sans-serif" font-size="11" lengthAdjust="spacingAndGlyphs" textLength="132"
              x="441" y="472.1245">public String toString();
        </text><!--class BackupCalculator-->
        <rect fill="#FEFECE" filter="url(#f2ky98fv8zamq)" height="73.6094" id="BackupCalculator"
              style="stroke: #A80036; stroke-width: 1.5;" width="247" x="104.5" y="575"/>
        <ellipse cx="169.25" cy="591" fill="#ADD1B2" rx="11" ry="11" style="stroke: #A80036; stroke-width: 1.0;"/>
        <path d="M171.5938,586.6719 L171.7656,586.75 C171.9844,586.4375 172.1875,586.3438 172.4844,586.3438 C172.7813,586.3438 173.0625,586.4844 173.2188,586.75 C173.3125,586.9063 173.3281,587.0313 173.3281,587.4688 L173.3281,588.8906 C173.3281,589.3125 173.2969,589.5 173.1875,589.6563 C173.0156,589.875 172.75,590.0156 172.4844,590.0156 C172.2656,590.0156 172.0313,589.9063 171.8906,589.7656 C171.75,589.6406 171.7188,589.5156 171.6563,589.1094 C171.5625,588.7031 171.3906,588.4844 170.9063,588.2031 C170.4375,587.9531 169.8281,587.7969 169.25,587.7969 C167.5156,587.7969 166.2656,589.1094 166.2656,590.8906 L166.2656,591.9844 C166.2656,593.6875 167.5625,594.7813 169.6094,594.7813 C170.375,594.7813 171.0625,594.6563 171.4844,594.3906 C171.6719,594.2969 171.6719,594.2969 172.125,593.8125 C172.3125,593.625 172.5156,593.5469 172.7344,593.5469 C173.2031,593.5469 173.5938,593.9375 173.5938,594.3906 C173.5938,594.7813 173.2656,595.2344 172.6875,595.6406 C171.9375,596.1875 170.7813,596.4844 169.5625,596.4844 C166.6719,596.4844 164.5625,594.5938 164.5625,592.0156 L164.5625,590.8906 C164.5625,588.1719 166.5625,586.0938 169.1875,586.0938 C170.0625,586.0938 170.6563,586.2344 171.5938,586.6719 Z "/>
        <text fill="#000000" font-family="sans-serif" font-size="12" lengthAdjust="spacingAndGlyphs" textLength="109"
              x="189.75" y="595.1543">BackupCalculator
        </text>
        <line style="stroke: #A80036; stroke-width: 1.5;" x1="105.5" x2="350.5" y1="607" y2="607"/>
        <line style="stroke: #A80036; stroke-width: 1.5;" x1="105.5" x2="350.5" y1="615" y2="615"/>
        <text fill="#000000" font-family="sans-serif" font-size="11" lengthAdjust="spacingAndGlyphs" textLength="235"
              x="110.5" y="629.2104">public BackupCalculator(int memorySize);
        </text>
        <text fill="#000000" font-family="sans-serif" font-size="11" lengthAdjust="spacingAndGlyphs" textLength="103"
              x="110.5" y="642.0151">public void save();
        </text><!--class TextFile-->
        <rect fill="#FEFECE" filter="url(#f2ky98fv8zamq)" height="137.6328" id="TextFile"
              style="stroke: #A80036; stroke-width: 1.5;" width="394" x="6" y="360"/>
        <ellipse cx="175.25" cy="376" fill="#ADD1B2" rx="11" ry="11" style="stroke: #A80036; stroke-width: 1.0;"/>
        <path d="M177.5938,371.6719 L177.7656,371.75 C177.9844,371.4375 178.1875,371.3438 178.4844,371.3438 C178.7813,371.3438 179.0625,371.4844 179.2188,371.75 C179.3125,371.9063 179.3281,372.0313 179.3281,372.4688 L179.3281,373.8906 C179.3281,374.3125 179.2969,374.5 179.1875,374.6563 C179.0156,374.875 178.75,375.0156 178.4844,375.0156 C178.2656,375.0156 178.0313,374.9063 177.8906,374.7656 C177.75,374.6406 177.7188,374.5156 177.6563,374.1094 C177.5625,373.7031 177.3906,373.4844 176.9063,373.2031 C176.4375,372.9531 175.8281,372.7969 175.25,372.7969 C173.5156,372.7969 172.2656,374.1094 172.2656,375.8906 L172.2656,376.9844 C172.2656,378.6875 173.5625,379.7813 175.6094,379.7813 C176.375,379.7813 177.0625,379.6563 177.4844,379.3906 C177.6719,379.2969 177.6719,379.2969 178.125,378.8125 C178.3125,378.625 178.5156,378.5469 178.7344,378.5469 C179.2031,378.5469 179.5938,378.9375 179.5938,379.3906 C179.5938,379.7813 179.2656,380.2344 178.6875,380.6406 C177.9375,381.1875 176.7813,381.4844 175.5625,381.4844 C172.6719,381.4844 170.5625,379.5938 170.5625,377.0156 L170.5625,375.8906 C170.5625,373.1719 172.5625,371.0938 175.1875,371.0938 C176.0625,371.0938 176.6563,371.2344 177.5938,371.6719 Z "/>
        <text fill="#000000" font-family="sans-serif" font-size="12" lengthAdjust="spacingAndGlyphs" textLength="47"
              x="195.75" y="380.1543">TextFile
        </text>
        <line style="stroke: #A80036; stroke-width: 1.5;" x1="7" x2="399" y1="392" y2="392"/>
        <text fill="#000000" font-family="sans-serif" font-size="11" lengthAdjust="spacingAndGlyphs" textLength="152"
              x="12" y="406.2104">private BufferedWriter fW_;
        </text>
        <text fill="#000000" font-family="sans-serif" font-size="11" lengthAdjust="spacingAndGlyphs" textLength="157"
              x="12" y="419.0151">private BufferedReader fR_;
        </text>
        <text fill="#000000" font-family="sans-serif" font-size="11" lengthAdjust="spacingAndGlyphs" textLength="114"
              x="12" y="431.8198">private char mode_;
        </text>
        <line style="stroke: #A80036; stroke-width: 1.5;" x1="7" x2="399" y1="438.4141" y2="438.4141"/>
        <text fill="#000000" font-family="sans-serif" font-size="11" lengthAdjust="spacingAndGlyphs" textLength="382"
              x="12" y="452.6245">public void open(String filename, String mode) throws IOException;
        </text>
        <text fill="#000000" font-family="sans-serif" font-size="11" lengthAdjust="spacingAndGlyphs" textLength="219"
              x="12" y="465.4292">public void close() throws IOException;
        </text>
        <text fill="#000000" font-family="sans-serif" font-size="11" lengthAdjust="spacingAndGlyphs" textLength="226"
              x="12" y="478.2339">public String read() throws IOException;
        </text>
        <text fill="#000000" font-family="sans-serif" font-size="11" lengthAdjust="spacingAndGlyphs" textLength="262"
              x="12" y="491.0386">public void write(String s) throws IOException;
        </text><!--class TcpServer-->
        <rect fill="#FEFECE" filter="url(#f2ky98fv8zamq)" height="124.8281" id="TcpServer"
              style="stroke: #A80036; stroke-width: 1.5;" width="239" x="255.5" y="979"/>
        <ellipse cx="339.75" cy="995" fill="#ADD1B2" rx="11" ry="11" style="stroke: #A80036; stroke-width: 1.0;"/>
        <path d="M342.0938,990.6719 L342.2656,990.75 C342.4844,990.4375 342.6875,990.3438 342.9844,990.3438 C343.2813,990.3438 343.5625,990.4844 343.7188,990.75 C343.8125,990.9063 343.8281,991.0313 343.8281,991.4688 L343.8281,992.8906 C343.8281,993.3125 343.7969,993.5 343.6875,993.6563 C343.5156,993.875 343.25,994.0156 342.9844,994.0156 C342.7656,994.0156 342.5313,993.9063 342.3906,993.7656 C342.25,993.6406 342.2188,993.5156 342.1563,993.1094 C342.0625,992.7031 341.8906,992.4844 341.4063,992.2031 C340.9375,991.9531 340.3281,991.7969 339.75,991.7969 C338.0156,991.7969 336.7656,993.1094 336.7656,994.8906 L336.7656,995.9844 C336.7656,997.6875 338.0625,998.7813 340.1094,998.7813 C340.875,998.7813 341.5625,998.6563 341.9844,998.3906 C342.1719,998.2969 342.1719,998.2969 342.625,997.8125 C342.8125,997.625 343.0156,997.5469 343.2344,997.5469 C343.7031,997.5469 344.0938,997.9375 344.0938,998.3906 C344.0938,998.7813 343.7656,999.2344 343.1875,999.6406 C342.4375,1000.1875 341.2813,1000.4844 340.0625,1000.4844 C337.1719,1000.4844 335.0625,998.5938 335.0625,996.0156 L335.0625,994.8906 C335.0625,992.1719 337.0625,990.0938 339.6875,990.0938 C340.5625,990.0938 341.1563,990.2344 342.0938,990.6719 Z "/>
        <text fill="#000000" font-family="sans-serif" font-size="12" lengthAdjust="spacingAndGlyphs" textLength="62"
              x="360.25" y="999.1543">TcpServer
        </text>
        <line style="stroke: #A80036; stroke-width: 1.5;" x1="256.5" x2="493.5" y1="1011" y2="1011"/>
        <text fill="#000000" font-family="sans-serif" font-size="11" lengthAdjust="spacingAndGlyphs" textLength="51"
              x="261.5" y="1025.2104">int port_;
        </text>
        <text fill="#000000" font-family="sans-serif" font-size="11" lengthAdjust="spacingAndGlyphs" textLength="157"
              x="261.5" y="1038.0151">ServerSocket receptionist_;
        </text>
        <text fill="#000000" font-family="sans-serif" font-size="11" lengthAdjust="spacingAndGlyphs" textLength="111"
              x="261.5" y="1050.8198">int currentService_;
        </text>
        <line style="stroke: #A80036; stroke-width: 1.5;" x1="256.5" x2="493.5" y1="1057.4141" y2="1057.4141"/>
        <text fill="#000000" font-family="sans-serif" font-size="11" lengthAdjust="spacingAndGlyphs" textLength="227"
              x="261.5" y="1071.6245">public TcpServer(int port, int nbClients);
        </text>
        <text fill="#000000" font-family="sans-serif" font-size="11" lengthAdjust="spacingAndGlyphs" textLength="107"
              x="261.5" y="1084.4292">public void listen();
        </text>
        <text fill="#000000" font-family="sans-serif" font-size="11" lengthAdjust="spacingAndGlyphs" textLength="170"
              x="261.5" y="1097.2339">public int getCurrentService();
        </text><!--class Service-->
        <rect fill="#FEFECE" filter="url(#f2ky98fv8zamq)" height="176.0469" id="Service"
              style="stroke: #A80036; stroke-width: 1.5;" width="322" x="214" y="726"/>
        <ellipse cx="348.25" cy="742" fill="#ADD1B2" rx="11" ry="11" style="stroke: #A80036; stroke-width: 1.0;"/>
        <path d="M350.5938,737.6719 L350.7656,737.75 C350.9844,737.4375 351.1875,737.3438 351.4844,737.3438 C351.7813,737.3438 352.0625,737.4844 352.2188,737.75 C352.3125,737.9063 352.3281,738.0313 352.3281,738.4688 L352.3281,739.8906 C352.3281,740.3125 352.2969,740.5 352.1875,740.6563 C352.0156,740.875 351.75,741.0156 351.4844,741.0156 C351.2656,741.0156 351.0313,740.9063 350.8906,740.7656 C350.75,740.6406 350.7188,740.5156 350.6563,740.1094 C350.5625,739.7031 350.3906,739.4844 349.9063,739.2031 C349.4375,738.9531 348.8281,738.7969 348.25,738.7969 C346.5156,738.7969 345.2656,740.1094 345.2656,741.8906 L345.2656,742.9844 C345.2656,744.6875 346.5625,745.7813 348.6094,745.7813 C349.375,745.7813 350.0625,745.6563 350.4844,745.3906 C350.6719,745.2969 350.6719,745.2969 351.125,744.8125 C351.3125,744.625 351.5156,744.5469 351.7344,744.5469 C352.2031,744.5469 352.5938,744.9375 352.5938,745.3906 C352.5938,745.7813 352.2656,746.2344 351.6875,746.6406 C350.9375,747.1875 349.7813,747.4844 348.5625,747.4844 C345.6719,747.4844 343.5625,745.5938 343.5625,743.0156 L343.5625,741.8906 C343.5625,739.1719 345.5625,737.0938 348.1875,737.0938 C349.0625,737.0938 349.6563,737.2344 350.5938,737.6719 Z "/>
        <text fill="#000000" font-family="sans-serif" font-size="12" lengthAdjust="spacingAndGlyphs" textLength="45"
              x="368.75" y="746.1543">Service
        </text>
        <line style="stroke: #A80036; stroke-width: 1.5;" x1="215" x2="535" y1="758" y2="758"/>
        <text fill="#000000" font-family="sans-serif" font-size="11" lengthAdjust="spacingAndGlyphs" textLength="238"
              x="220" y="772.2104">protected boolean serviceEnded_ = false;
        </text>
        <text fill="#000000" font-family="sans-serif" font-size="11" lengthAdjust="spacingAndGlyphs" textLength="130"
              x="220" y="785.0151">protected int number_;
        </text>
        <text fill="#000000" font-family="sans-serif" font-size="11" lengthAdjust="spacingAndGlyphs" textLength="118"
              x="220" y="797.8198">ServeurTCP server_;
        </text>
        <text fill="#000000" font-family="sans-serif" font-size="11" lengthAdjust="spacingAndGlyphs" textLength="89"
              x="220" y="810.6245">Socket socket_;
        </text>
        <text fill="#000000" font-family="sans-serif" font-size="11" lengthAdjust="spacingAndGlyphs" textLength="148"
              x="220" y="823.4292">ObjectInputStream input_;
        </text>
        <text fill="#000000" font-family="sans-serif" font-size="11" lengthAdjust="spacingAndGlyphs" textLength="166"
              x="220" y="836.2339">ObjectOutputStream output_;
        </text>
        <line style="stroke: #A80036; stroke-width: 1.5;" x1="215" x2="535" y1="842.8281" y2="842.8281"/>
        <text fill="#000000" font-family="sans-serif" font-size="11" lengthAdjust="spacingAndGlyphs" textLength="310"
              x="220" y="857.0386">Service(TcpServer server, Socket socket, int number);
        </text>
        <text fill="#000000" font-family="sans-serif" font-size="11" lengthAdjust="spacingAndGlyphs" textLength="166"
              x="220" y="869.8433">private void provideService();
        </text>
        <text fill="#000000" font-family="sans-serif" font-size="11" lengthAdjust="spacingAndGlyphs" textLength="131"
              x="220" y="882.6479">public void terminate();
        </text>
        <text fill="#000000" font-family="sans-serif" font-size="11" lengthAdjust="spacingAndGlyphs" textLength="95"
              x="220" y="895.4526">public void run();
        </text><!--class Thread-->
        <rect fill="#FEFECE" filter="url(#f2ky98fv8zamq)" height="48" id="Thread"
              style="stroke: #A80036; stroke-width: 1.5;" width="76" x="387" y="588"/>
        <ellipse cx="402" cy="604" fill="#ADD1B2" rx="11" ry="11" style="stroke: #A80036; stroke-width: 1.0;"/>
        <path d="M404.3438,599.6719 L404.5156,599.75 C404.7344,599.4375 404.9375,599.3438 405.2344,599.3438 C405.5313,599.3438 405.8125,599.4844 405.9688,599.75 C406.0625,599.9063 406.0781,600.0313 406.0781,600.4688 L406.0781,601.8906 C406.0781,602.3125 406.0469,602.5 405.9375,602.6563 C405.7656,602.875 405.5,603.0156 405.2344,603.0156 C405.0156,603.0156 404.7813,602.9063 404.6406,602.7656 C404.5,602.6406 404.4688,602.5156 404.4063,602.1094 C404.3125,601.7031 404.1406,601.4844 403.6563,601.2031 C403.1875,600.9531 402.5781,600.7969 402,600.7969 C400.2656,600.7969 399.0156,602.1094 399.0156,603.8906 L399.0156,604.9844 C399.0156,606.6875 400.3125,607.7813 402.3594,607.7813 C403.125,607.7813 403.8125,607.6563 404.2344,607.3906 C404.4219,607.2969 404.4219,607.2969 404.875,606.8125 C405.0625,606.625 405.2656,606.5469 405.4844,606.5469 C405.9531,606.5469 406.3438,606.9375 406.3438,607.3906 C406.3438,607.7813 406.0156,608.2344 405.4375,608.6406 C404.6875,609.1875 403.5313,609.4844 402.3125,609.4844 C399.4219,609.4844 397.3125,607.5938 397.3125,605.0156 L397.3125,603.8906 C397.3125,601.1719 399.3125,599.0938 401.9375,599.0938 C402.8125,599.0938 403.4063,599.2344 404.3438,599.6719 Z "/>
        <text fill="#000000" font-family="sans-serif" font-size="12" lengthAdjust="spacingAndGlyphs" textLength="44"
              x="416" y="608.1543">Thread
        </text>
        <line style="stroke: #A80036; stroke-width: 1.5;" x1="388" x2="462" y1="620" y2="620"/>
        <line style="stroke: #A80036; stroke-width: 1.5;" x1="388" x2="462" y1="628"
              y2="628"/><!--link Thread to Service-->
        <path d="M414.238,656.048 C409.12,676.522 402.807,701.774 396.752,725.992 " fill="none" id="Thread-Service"
              style="stroke: #A80036; stroke-width: 1.0;"/>
        <polygon fill="none" points="407.525,654.039,419.167,636.334,421.107,657.435,407.525,654.039"
                 style="stroke: #A80036; stroke-width: 1.0;"/><!--link Operation to MathematicalOperation-->
        <path d="M540,127.63 C540,146.479 540,166.496 540,183.936 " fill="none" id="Operation-MathematicalOperation"
              style="stroke: #A80036; stroke-width: 1.0;"/>
        <polygon fill="none" points="533,127.432,540,107.432,547,127.432,533,127.432"
                 style="stroke: #A80036; stroke-width: 1.0;"/>
        <text fill="#000000" font-family="sans-serif" font-size="13" lengthAdjust="spacingAndGlyphs" textLength="71"
              x="541" y="150.0669">Inheritance
        </text><!--link MathematicalOperation to Calculator-->
        <path d="M540,283.328 C540,308.422 540,339.269 540,366.025 " fill="none" id="MathematicalOperation-Calculator"
              style="stroke: #A80036; stroke-width: 1.0;"/>
        <polygon fill="#A80036" points="540,379.187,544,373.187,540,367.187,536,373.187,540,379.187"
                 style="stroke: #A80036; stroke-width: 1.0;"/>
        <text fill="#000000" font-family="sans-serif" font-size="13" lengthAdjust="spacingAndGlyphs" textLength="68"
              x="541" y="326.0669">operations
        </text>
        <text fill="#000000" font-family="sans-serif" font-size="13" lengthAdjust="spacingAndGlyphs" textLength="7"
              x="532.5078" y="303.4506">*
        </text>
        <text fill="#000000" font-family="sans-serif" font-size="13" lengthAdjust="spacingAndGlyphs" textLength="8"
              x="531.4625" y="368.5467">1
        </text><!--link TextFile to BackupCalculator-->
        <path d="M212.416,498.17 C215.34,519.34 218.504,542.248 221.212,561.857 " fill="none"
              id="TextFile-BackupCalculator" style="stroke: #A80036; stroke-width: 1.0;"/>
        <polygon fill="#A80036"
                 points="223.006,574.843,226.1475,568.3521,221.3642,562.9558,218.2227,569.4467,223.006,574.843"
                 style="stroke: #A80036; stroke-width: 1.0;"/>
        <text fill="#000000" font-family="sans-serif" font-size="13" lengthAdjust="spacingAndGlyphs" textLength="9"
              x="220" y="541.0669">ft
        </text>
        <text fill="#000000" font-family="sans-serif" font-size="13" lengthAdjust="spacingAndGlyphs" textLength="8"
              x="204.9491" y="517.8087">1
        </text>
        <text fill="#000000" font-family="sans-serif" font-size="13" lengthAdjust="spacingAndGlyphs" textLength="8"
              x="213.4039" y="564.002">1
        </text><!--link Calculator to BackupCalculator-->
        <path d="M438.817,488.699 C389.998,517.021 332.972,550.103 290.549,574.714 " fill="none"
              id="Calculator-BackupCalculator" style="stroke: #A80036; stroke-width: 1.0;"/>
        <polygon fill="none" points="435.577,482.486,456.39,478.505,442.603,494.596,435.577,482.486"
                 style="stroke: #A80036; stroke-width: 1.0;"/>
        <text fill="#000000" font-family="sans-serif" font-size="13" lengthAdjust="spacingAndGlyphs" textLength="71"
              x="367" y="541.0669">Inheritance
        </text><!--link BackupCalculator to Service-->
        <path d="M254.621,649.218 C268.386,667.947 285.917,691.799 303.313,715.466 " fill="none"
              id="BackupCalculator-Service" style="stroke: #A80036; stroke-width: 1.0;"/>
        <polygon fill="#A80036"
                 points="311.014,725.944,310.683,718.7405,303.9063,716.2754,304.2373,723.4789,311.014,725.944"
                 style="stroke: #A80036; stroke-width: 1.0;"/>
        <text fill="#000000" font-family="sans-serif" font-size="13" lengthAdjust="spacingAndGlyphs" textLength="62"
              x="290" y="692.0669">calculator
        </text>
        <text fill="#000000" font-family="sans-serif" font-size="13" lengthAdjust="spacingAndGlyphs" textLength="8"
              x="250.3676" y="668.7347">1
        </text>
        <text fill="#000000" font-family="sans-serif" font-size="13" lengthAdjust="spacingAndGlyphs" textLength="8"
              x="297.1715" y="714.8027">1
        </text><!--link Service to TcpServer-->
        <path d="M375,902.184 C375,923.128 375,945.313 375,965.64 " fill="none" id="Service-TcpServer"
              style="stroke: #A80036; stroke-width: 1.0;"/>
        <polygon fill="#A80036" points="375,978.697,379,972.697,375,966.697,371,972.697,375,978.697"
                 style="stroke: #A80036; stroke-width: 1.0;"/>
        <text fill="#000000" font-family="sans-serif" font-size="13" lengthAdjust="spacingAndGlyphs" textLength="52"
              x="376" y="945.0669">services
        </text>
        <text fill="#000000" font-family="sans-serif" font-size="13" lengthAdjust="spacingAndGlyphs" textLength="8"
              x="366.6688" y="922.1783">1
        </text>
        <text fill="#000000" font-family="sans-serif" font-size="13" lengthAdjust="spacingAndGlyphs" textLength="8"
              x="366.5625" y="968.0912">1
        </text><!--
@startuml
class Operation {
    private String operation_;

    public Operation(); 
    public String getOperation();
    public void setOperation(String operation);
}

class MathematicalOperation {
    private double result_;

    public MathematicalOperation();
    public void solve(String operation) throws OperationException;
    public String toString();
} 

class Calculator {
    private int index_;

    public Calculator();
    public void solve(String operation);
    public String toString();
} 

class BackupCalculator {
    public BackupCalculator(int memorySize);
    public void save();
}

class TextFile {
    private BufferedWriter fW_;
    private BufferedReader fR_;
    private char mode_;

    public void open(String filename, String mode) throws IOException;
    public void close() throws IOException;
    public String read() throws IOException;
    public void write(String s) throws IOException;
}

class TcpServer {
    int port_;
    ServerSocket receptionist_;
    int currentService_;

    public TcpServer(int port, int nbClients);
    public void listen();
    public int getCurrentService();
}

class Service extends Thread {
    protected boolean serviceEnded_ = false;
    protected int number_;
    ServeurTCP server_;
    Socket socket_;
    ObjectInputStream input_;
    ObjectOutputStream output_;

    Service(TcpServer server, Socket socket, int number);
    private void provideService();
    public void terminate();
    public void run();
} 

Operation <|-down- MathematicalOperation: Inheritance
Calculator "1" *-up- "*" MathematicalOperation: operations
BackupCalculator "1" *-up- "1" TextFile: ft
Calculator <|-down- BackupCalculator: Inheritance
Service "1" *-up- "1" BackupCalculator: calculator
TcpServer "1" *-up- "1" Service: services
@enduml

PlantUML version 1.2019.03(Sun Mar 10 11:04:44 UTC 2019)
(GPL source distribution)
Java Runtime: Java(TM) SE Runtime Environment
JVM: Java HotSpot(TM) 64-Bit Server VM
Java Version: 1.7.0_25-b15
Operating System: Linux
Default Encoding: UTF-8
Language: en
Country: US
-->
    </g>
</svg>