<?xml version="1.0" encoding="UTF-8" standalone="no"?>
<svg xmlns="http://www.w3.org/2000/svg"
     contentScriptType="application/ecmascript" contentStyleType="text/css" height="187px" preserveAspectRatio="none"
     style="width:303px;height:187px;" version="1.1" viewBox="0 0 303 187" width="303px" zoomAndPan="magnify">
    <defs>
        <filter height="300%" id="fzl1t5chclxq0" width="300%" x="-1" y="-1">
            <feGaussianBlur result="blurOut" stdDeviation="2.0"/>
            <feColorMatrix in="blurOut" result="blurOut2" type="matrix"
                           values="0 0 0 0 0 0 0 0 0 0 0 0 0 0 0 0 0 0 .4 0"/>
            <feOffset dx="4.0" dy="4.0" in="blurOut2" result="blurOut3"/>
            <feBlend in="SourceGraphic" in2="blurOut3" mode="normal"/>
        </filter>
    </defs>
    <g><!--class A0-->
        <rect fill="#FEFECE" filter="url(#fzl1t5chclxq0)" height="48" id="A0"
              style="stroke: #A80036; stroke-width: 1.5;" width="48" x="6" y="8"/>
        <ellipse cx="21" cy="24" fill="#ADD1B2" rx="11" ry="11" style="stroke: #A80036; stroke-width: 1.0;"/>
        <path d="M23.3438,19.6719 L23.5156,19.75 C23.7344,19.4375 23.9375,19.3438 24.2344,19.3438 C24.5313,19.3438 24.8125,19.4844 24.9688,19.75 C25.0625,19.9063 25.0781,20.0313 25.0781,20.4688 L25.0781,21.8906 C25.0781,22.3125 25.0469,22.5 24.9375,22.6563 C24.7656,22.875 24.5,23.0156 24.2344,23.0156 C24.0156,23.0156 23.7813,22.9063 23.6406,22.7656 C23.5,22.6406 23.4688,22.5156 23.4063,22.1094 C23.3125,21.7031 23.1406,21.4844 22.6563,21.2031 C22.1875,20.9531 21.5781,20.7969 21,20.7969 C19.2656,20.7969 18.0156,22.1094 18.0156,23.8906 L18.0156,24.9844 C18.0156,26.6875 19.3125,27.7813 21.3594,27.7813 C22.125,27.7813 22.8125,27.6563 23.2344,27.3906 C23.4219,27.2969 23.4219,27.2969 23.875,26.8125 C24.0625,26.625 24.2656,26.5469 24.4844,26.5469 C24.9531,26.5469 25.3438,26.9375 25.3438,27.3906 C25.3438,27.7813 25.0156,28.2344 24.4375,28.6406 C23.6875,29.1875 22.5313,29.4844 21.3125,29.4844 C18.4219,29.4844 16.3125,27.5938 16.3125,25.0156 L16.3125,23.8906 C16.3125,21.1719 18.3125,19.0938 20.9375,19.0938 C21.8125,19.0938 22.4063,19.2344 23.3438,19.6719 Z "/>
        <text fill="#000000" font-family="sans-serif" font-size="12" lengthAdjust="spacingAndGlyphs" textLength="16"
              x="35" y="28.1543">A0
        </text>
        <line style="stroke: #A80036; stroke-width: 1.5;" x1="7" x2="53" y1="40" y2="40"/>
        <line style="stroke: #A80036; stroke-width: 1.5;" x1="7" x2="53" y1="48" y2="48"/><!--class A1-->
        <rect fill="#FEFECE" filter="url(#fzl1t5chclxq0)" height="60.8047" id="A1"
              style="stroke: #A80036; stroke-width: 1.5;" width="70" x="219" y="116"/>
        <ellipse cx="243.9" cy="132" fill="#ADD1B2" rx="11" ry="11" style="stroke: #A80036; stroke-width: 1.0;"/>
        <path d="M246.2438,127.6719 L246.4156,127.75 C246.6344,127.4375 246.8375,127.3438 247.1344,127.3438 C247.4313,127.3438 247.7125,127.4844 247.8688,127.75 C247.9625,127.9063 247.9781,128.0313 247.9781,128.4688 L247.9781,129.8906 C247.9781,130.3125 247.9469,130.5 247.8375,130.6563 C247.6656,130.875 247.4,131.0156 247.1344,131.0156 C246.9156,131.0156 246.6813,130.9063 246.5406,130.7656 C246.4,130.6406 246.3688,130.5156 246.3063,130.1094 C246.2125,129.7031 246.0406,129.4844 245.5563,129.2031 C245.0875,128.9531 244.4781,128.7969 243.9,128.7969 C242.1656,128.7969 240.9156,130.1094 240.9156,131.8906 L240.9156,132.9844 C240.9156,134.6875 242.2125,135.7813 244.2594,135.7813 C245.025,135.7813 245.7125,135.6563 246.1344,135.3906 C246.3219,135.2969 246.3219,135.2969 246.775,134.8125 C246.9625,134.625 247.1656,134.5469 247.3844,134.5469 C247.8531,134.5469 248.2438,134.9375 248.2438,135.3906 C248.2438,135.7813 247.9156,136.2344 247.3375,136.6406 C246.5875,137.1875 245.4313,137.4844 244.2125,137.4844 C241.3219,137.4844 239.2125,135.5938 239.2125,133.0156 L239.2125,131.8906 C239.2125,129.1719 241.2125,127.0938 243.8375,127.0938 C244.7125,127.0938 245.3063,127.2344 246.2438,127.6719 Z "/>
        <text fill="#000000" font-family="sans-serif" font-size="12" lengthAdjust="spacingAndGlyphs" textLength="16"
              x="260.1" y="136.1543">A1
        </text>
        <line style="stroke: #A80036; stroke-width: 1.5;" x1="220" x2="288" y1="148" y2="148"/>
        <line style="stroke: #A80036; stroke-width: 1.5;" x1="220" x2="288" y1="156" y2="156"/>
        <text fill="#000000" font-family="sans-serif" font-size="11" lengthAdjust="spacingAndGlyphs" textLength="58"
              x="225" y="170.2104">void run();
        </text><!--class Thread-->
        <rect fill="#FEFECE" filter="url(#fzl1t5chclxq0)" height="48" id="Thread"
              style="stroke: #A80036; stroke-width: 1.5;" width="76" x="216" y="8"/>
        <ellipse cx="231" cy="24" fill="#ADD1B2" rx="11" ry="11" style="stroke: #A80036; stroke-width: 1.0;"/>
        <path d="M233.3438,19.6719 L233.5156,19.75 C233.7344,19.4375 233.9375,19.3438 234.2344,19.3438 C234.5313,19.3438 234.8125,19.4844 234.9688,19.75 C235.0625,19.9063 235.0781,20.0313 235.0781,20.4688 L235.0781,21.8906 C235.0781,22.3125 235.0469,22.5 234.9375,22.6563 C234.7656,22.875 234.5,23.0156 234.2344,23.0156 C234.0156,23.0156 233.7813,22.9063 233.6406,22.7656 C233.5,22.6406 233.4688,22.5156 233.4063,22.1094 C233.3125,21.7031 233.1406,21.4844 232.6563,21.2031 C232.1875,20.9531 231.5781,20.7969 231,20.7969 C229.2656,20.7969 228.0156,22.1094 228.0156,23.8906 L228.0156,24.9844 C228.0156,26.6875 229.3125,27.7813 231.3594,27.7813 C232.125,27.7813 232.8125,27.6563 233.2344,27.3906 C233.4219,27.2969 233.4219,27.2969 233.875,26.8125 C234.0625,26.625 234.2656,26.5469 234.4844,26.5469 C234.9531,26.5469 235.3438,26.9375 235.3438,27.3906 C235.3438,27.7813 235.0156,28.2344 234.4375,28.6406 C233.6875,29.1875 232.5313,29.4844 231.3125,29.4844 C228.4219,29.4844 226.3125,27.5938 226.3125,25.0156 L226.3125,23.8906 C226.3125,21.1719 228.3125,19.0938 230.9375,19.0938 C231.8125,19.0938 232.4063,19.2344 233.3438,19.6719 Z "/>
        <text fill="#000000" font-family="sans-serif" font-size="12" lengthAdjust="spacingAndGlyphs" textLength="44"
              x="245" y="28.1543">Thread
        </text>
        <line style="stroke: #A80036; stroke-width: 1.5;" x1="217" x2="291" y1="40" y2="40"/>
        <line style="stroke: #A80036; stroke-width: 1.5;" x1="217" x2="291" y1="48" y2="48"/><!--class A2-->
        <rect fill="#FEFECE" filter="url(#fzl1t5chclxq0)" height="60.8047" id="A2"
              style="stroke: #A80036; stroke-width: 1.5;" width="70" x="47" y="116"/>
        <ellipse cx="71.9" cy="132" fill="#ADD1B2" rx="11" ry="11" style="stroke: #A80036; stroke-width: 1.0;"/>
        <path d="M74.2438,127.6719 L74.4156,127.75 C74.6344,127.4375 74.8375,127.3438 75.1344,127.3438 C75.4313,127.3438 75.7125,127.4844 75.8688,127.75 C75.9625,127.9063 75.9781,128.0313 75.9781,128.4688 L75.9781,129.8906 C75.9781,130.3125 75.9469,130.5 75.8375,130.6563 C75.6656,130.875 75.4,131.0156 75.1344,131.0156 C74.9156,131.0156 74.6813,130.9063 74.5406,130.7656 C74.4,130.6406 74.3688,130.5156 74.3063,130.1094 C74.2125,129.7031 74.0406,129.4844 73.5563,129.2031 C73.0875,128.9531 72.4781,128.7969 71.9,128.7969 C70.1656,128.7969 68.9156,130.1094 68.9156,131.8906 L68.9156,132.9844 C68.9156,134.6875 70.2125,135.7813 72.2594,135.7813 C73.025,135.7813 73.7125,135.6563 74.1344,135.3906 C74.3219,135.2969 74.3219,135.2969 74.775,134.8125 C74.9625,134.625 75.1656,134.5469 75.3844,134.5469 C75.8531,134.5469 76.2438,134.9375 76.2438,135.3906 C76.2438,135.7813 75.9156,136.2344 75.3375,136.6406 C74.5875,137.1875 73.4313,137.4844 72.2125,137.4844 C69.3219,137.4844 67.2125,135.5938 67.2125,133.0156 L67.2125,131.8906 C67.2125,129.1719 69.2125,127.0938 71.8375,127.0938 C72.7125,127.0938 73.3063,127.2344 74.2438,127.6719 Z "/>
        <text fill="#000000" font-family="sans-serif" font-size="12" lengthAdjust="spacingAndGlyphs" textLength="16"
              x="88.1" y="136.1543">A2
        </text>
        <line style="stroke: #A80036; stroke-width: 1.5;" x1="48" x2="116" y1="148" y2="148"/>
        <line style="stroke: #A80036; stroke-width: 1.5;" x1="48" x2="116" y1="156" y2="156"/>
        <text fill="#000000" font-family="sans-serif" font-size="11" lengthAdjust="spacingAndGlyphs" textLength="58"
              x="53" y="170.2104">void run();
        </text><!--class Runnable-->
        <rect fill="#FEFECE" filter="url(#fzl1t5chclxq0)" height="48" id="Runnable"
              style="stroke: #A80036; stroke-width: 1.5;" width="91" x="89.5" y="8"/>
        <ellipse cx="104.5" cy="24" fill="#B4A7E5" rx="11" ry="11" style="stroke: #A80036; stroke-width: 1.0;"/>
        <path d="M105.4531,20.7813 L105.4531,27.2969 L107.1719,27.2969 C107.625,27.2969 107.7656,27.3281 107.9375,27.4531 C108.1719,27.625 108.2813,27.875 108.2813,28.1563 C108.2813,28.7188 107.9219,29 107.1719,29 L102.0313,29 C101.625,29 101.4219,28.9531 101.2656,28.8281 C101.0469,28.6719 100.9063,28.4063 100.9063,28.1563 C100.9063,27.8594 101.0625,27.5781 101.3125,27.4219 C101.4688,27.3125 101.5938,27.2969 102.0313,27.2969 L103.75,27.2969 L103.75,20.7813 L102.0313,20.7813 C101.6094,20.7813 101.4219,20.75 101.2656,20.6406 C101.0469,20.4688 100.9063,20.2188 100.9063,19.9375 C100.9063,19.6563 101.0625,19.3594 101.3125,19.2031 C101.4688,19.1094 101.5938,19.0938 102.0313,19.0938 L107.1719,19.0938 C107.625,19.0938 107.7656,19.125 107.9375,19.2344 C108.1719,19.4063 108.2813,19.6719 108.2813,19.9375 C108.2813,20.2344 108.1406,20.5156 107.875,20.6719 C107.75,20.75 107.5625,20.7813 107.1719,20.7813 Z "/>
        <text fill="#000000" font-family="sans-serif" font-size="12" font-style="italic" lengthAdjust="spacingAndGlyphs"
              textLength="59" x="118.5" y="28.1543">Runnable
        </text>
        <line style="stroke: #A80036; stroke-width: 1.5;" x1="90.5" x2="179.5" y1="40" y2="40"/>
        <line style="stroke: #A80036; stroke-width: 1.5;" x1="90.5" x2="179.5" y1="48" y2="48"/><!--link Thread to A1-->
        <path d="M254,76.109 C254,89.3115 254,103.5368 254,115.6497 " fill="none" id="Thread-A1"
              style="stroke: #A80036; stroke-width: 1.0;"/>
        <polygon fill="none" points="247,76.038,254,56.038,261,76.037,247,76.038"
                 style="stroke: #A80036; stroke-width: 1.0;"/><!--link A0 to A2-->
        <path d="M49.0472,74.208 C55.3924,87.9355 62.3339,102.9531 68.2025,115.6497 " fill="none" id="A0-A2"
              style="stroke: #A80036; stroke-width: 1.0;"/>
        <polygon fill="none" points="42.6858,77.129,40.6485,56.038,55.394,71.255,42.6858,77.129"
                 style="stroke: #A80036; stroke-width: 1.0;"/><!--link Runnable to A2-->
        <path d="M115.586,74.208 C109.119,87.9355 102.0443,102.9531 96.0628,115.6497 " fill="none" id="Runnable-A2"
              style="stroke: #A80036; stroke-width: 1.0; stroke-dasharray: 7.0,7.0;"/>
        <polygon fill="none" points="109.291,71.147,124.147,56.038,121.955,77.1136,109.291,71.147"
                 style="stroke: #A80036; stroke-width: 1.0;"/><!--
@startuml
class A0{
}

class A1 extends Thread {
   void run();
}

class A2 extends A0 implements Runnable {
   void run();
}
@enduml

PlantUML version 1.2018.02(Fri Mar 09 17:20:44 UTC 2018)
(GPL source distribution)
Java Runtime: Java(TM) SE Runtime Environment
JVM: Java HotSpot(TM) 64-Bit Server VM
Java Version: 1.7.0_25-b15
Operating System: Linux
Default Encoding: UTF-8
Language: en
Country: US
-->
    </g>
</svg>